solid logo
facet normal 0.0 0.0 -1.0
outer loop
vertex -1.89923581685292 7.3786097107019515 0.0
vertex -1.8347494613345803 6.415595988387198 0.0
vertex -1.8402139388980534 6.240111791135223 0.0
endloop
endfacet
facet normal 0.0 0.0 -1.0
outer loop
vertex -1.8347494613345803 6.415595988387198 0.0
vertex -1.89923581685292 7.3786097107019515 0.0
vertex -1.7876828201833206 6.5847388135112634 0.0
endloop
endfacet
facet normal 0.0 0.0 -1.0
outer loop
vertex -1.7876828201833206 6.5847388135112634 0.0
vertex -1.89923581685292 7.3786097107019515 0.0
vertex -1.701718118901593 6.737822562269109 0.0
endloop
endfacet
facet normal 0.0 0.0 -1.0
outer loop
vertex -1.701718118901593 6.737822562269109 0.0
vertex -1.89923581685292 7.3786097107019515 0.0
vertex -1.5817942577435342 6.8660521669832875 0.0
endloop
endfacet
facet normal 0.0 0.0 -1.0
outer loop
vertex -1.5817942577435342 6.8660521669832875 0.0
vertex -1.89923581685292 7.3786097107019515 0.0
vertex -1.4348011808317844 6.962060496518949 0.0
endloop
endfacet
facet normal 0.0 0.0 -1.0
outer loop
vertex -1.4348011808317844 6.962060496518949 0.0
vertex -1.89923581685292 7.3786097107019515 0.0
vertex -0.31182381685292015 7.3786097107019515 0.0
endloop
endfacet
facet normal 0.0 0.0 -1.0
outer loop
vertex -1.4348011808317844 6.962060496518949 0.0
vertex -0.31182381685292015 7.3786097107019515 0.0
vertex -1.2691840305805129 7.0203316175212045 0.0
endloop
endfacet
facet normal 0.0 0.0 -1.0
outer loop
vertex -1.2691840305805129 7.0203316175212045 0.0
vertex -0.31182381685292015 7.3786097107019515 0.0
vertex -1.0944579518488255 7.037517699426629 0.0
endloop
endfacet
facet normal 0.0 0.0 -1.0
outer loop
vertex -1.0944579518488255 7.037517699426629 0.0
vertex -0.31182381685292015 7.3786097107019515 0.0
vertex -0.9206614216137322 7.012631356214857 0.0
endloop
endfacet
facet normal 0.0 0.0 -1.0
outer loop
vertex -0.9206614216137322 7.012631356214857 0.0
vertex -0.31182381685292015 7.3786097107019515 0.0
vertex -0.765486493641968 6.950202968353311 0.0
endloop
endfacet
facet normal 0.0 0.0 -1.0
outer loop
vertex -0.765486493641968 6.950202968353311 0.0
vertex -0.31182381685292015 7.3786097107019515 0.0
vertex -0.6151702205141969 6.844695567783799 0.0
endloop
endfacet
facet normal 0.0 0.0 -1.0
outer loop
vertex -0.6151702205141969 6.844695567783799 0.0
vertex -0.31182381685292015 7.3786097107019515 0.0
vertex -0.4914968724916863 6.696966745077176 0.0
endloop
endfacet
facet normal 0.0 0.0 -1.0
outer loop
vertex -0.4914968724916863 6.696966745077176 0.0
vertex -0.31182381685292015 7.3786097107019515 0.0
vertex -0.4102726244401552 6.5222626420977505 0.0
endloop
endfacet
facet normal 0.0 0.0 -1.0
outer loop
vertex -0.4102726244401552 6.5222626420977505 0.0
vertex -0.31182381685292015 7.3786097107019515 0.0
vertex -0.3770327746348989 6.332489054751392 0.0
endloop
endfacet
facet normal 0.0 0.0 -1.0
outer loop
vertex -0.3770327746348989 6.332489054751392 0.0
vertex -0.31182381685292015 7.3786097107019515 0.0
vertex -0.3613888308155818 5.194264788927884 0.0
endloop
endfacet
facet normal 0.0 0.0 -1.0
outer loop
vertex -0.3613888308155818 5.194264788927884 0.0
vertex -0.31182381685292015 7.3786097107019515 0.0
vertex -0.3165894063953162 5.196154320240709 0.0
endloop
endfacet
facet normal 0.0 0.0 -1.0
outer loop
vertex -0.3165894063953162 5.196154320240709 0.0
vertex -0.31182381685292015 7.3786097107019515 0.0
vertex -0.2724356125119863 5.203964649470494 0.0
endloop
endfacet
facet normal 0.0 0.0 -1.0
outer loop
vertex -0.2724356125119863 5.203964649470494 0.0
vertex -0.31182381685292015 7.3786097107019515 0.0
vertex -0.2740983209167922 7.3761994608125345 0.0
endloop
endfacet
facet normal 0.0 0.0 -1.0
outer loop
vertex -0.2724356125119863 5.203964649470494 0.0
vertex -0.2740983209167922 7.3761994608125345 0.0
vertex -0.23698627625299648 7.369007904024977 0.0
endloop
endfacet
facet normal 0.0 0.0 -1.0
outer loop
vertex -0.2724356125119863 5.203964649470494 0.0
vertex -0.23698627625299648 7.369007904024977 0.0
vertex -0.2297064633050316 5.21755797743016 0.0
endloop
endfacet
facet normal 0.0 0.0 -1.0
outer loop
vertex -0.2297064633050316 5.21755797743016 0.0
vertex -0.23698627625299648 7.369007904024977 0.0
vertex -0.2010911588517863 7.357151981669058 0.0
endloop
endfacet
facet normal 0.0 0.0 -1.0
outer loop
vertex -0.2297064633050316 5.21755797743016 0.0
vertex -0.2010911588517863 7.357151981669058 0.0
vertex -0.1891558376254157 5.236694474339494 0.0
endloop
endfacet
facet normal 0.0 0.0 -1.0
outer loop
vertex -0.1891558376254157 5.236694474339494 0.0
vertex -0.2010911588517863 7.357151981669058 0.0
vertex -0.16699665634652153 7.340824481950034 0.0
endloop
endfacet
facet normal 0.0 0.0 -1.0
outer loop
vertex -0.1891558376254157 5.236694474339494 0.0
vertex -0.16699665634652153 7.340824481950034 0.0
vertex -0.15149917820159398 5.261036511189509 0.0
endloop
endfacet
facet normal 0.0 0.0 -1.0
outer loop
vertex -0.15149917820159398 5.261036511189509 0.0
vertex -0.16699665634652153 7.340824481950034 0.0
vertex -0.1352571767157427 7.320290905035049 0.0
endloop
endfacet
facet normal 0.0 0.0 -1.0
outer loop
vertex -0.15149917820159398 5.261036511189509 0.0
vertex -0.1352571767157427 7.320290905035049 0.0
vertex -0.11740086894161136 5.290154616597997 0.0
endloop
endfacet
facet normal 0.0 0.0 -1.0
outer loop
vertex -0.11740086894161136 5.290154616597997 0.0
vertex -0.1352571767157427 7.320290905035049 0.0
vertex -0.10638883309937056 7.29588514577615 0.0
endloop
endfacet
facet normal 0.0 0.0 -1.0
outer loop
vertex -0.11740086894161136 5.290154616597997 0.0
vertex -0.10638883309937056 7.29588514577615 0.0
vertex -0.08746251307609176 5.323535054058263 0.0
endloop
endfacet
facet normal 0.0 0.0 -1.0
outer loop
vertex -0.08746251307609176 5.323535054058263 0.0
vertex -0.10638883309937056 7.29588514577615 0.0
vertex -0.08086105132421387 7.268004064272804 0.0
endloop
endfacet
facet normal 0.0 0.0 -1.0
outer loop
vertex -0.08746251307609176 5.323535054058263 0.0
vertex -0.08086105132421387 7.268004064272804 0.0
vertex -0.06221231895316581 5.360588885894172 0.0
endloop
endfacet
facet normal 0.0 0.0 -1.0
outer loop
vertex -0.06221231895316581 5.360588885894172 0.0
vertex -0.08086105132421387 7.268004064272804 0.0
vertex -0.05908893660814174 7.237101032561556 0.0
endloop
endfacet
facet normal 0.0 0.0 -1.0
outer loop
vertex -0.06221231895316581 5.360588885894172 0.0
vertex -0.05908893660814174 7.237101032561556 0.0
vertex -0.042095780753862 5.4006623640043285 0.0
endloop
endfacet
facet normal 0.0 0.0 -1.0
outer loop
vertex -0.042095780753862 5.4006623640043285 0.0
vertex -0.05908893660814174 7.237101032561556 0.0
vertex -0.041426523567333895 7.203678562369601 0.0
endloop
endfacet
facet normal 0.0 0.0 -1.0
outer loop
vertex -0.042095780753862 5.4006623640043285 0.0
vertex -0.041426523567333895 7.203678562369601 0.0
vertex -0.027467818549946843 5.443048464069445 0.0
endloop
endfacet
facet normal 0.0 0.0 -1.0
outer loop
vertex -0.027467818549946843 5.443048464069445 0.0
vertex -0.041426523567333895 7.203678562369601 0.0
vertex -0.028161019287700817 7.168280133811778 0.0
endloop
endfacet
facet normal 0.0 0.0 -1.0
outer loop
vertex -0.027467818549946843 5.443048464069445 0.0
vertex -0.028161019287700817 7.168280133811778 0.0
vertex -0.019508133073428857 7.131481357903888 0.0
endloop
endfacet
facet normal 0.0 0.0 -1.0
outer loop
vertex -0.027467818549946843 5.443048464069445 0.0
vertex -0.019508133073428857 7.131481357903888 0.0
vertex -0.0185865163787321 5.486999359722581 0.0
endloop
endfacet
facet normal 0.0 0.0 -1.0
outer loop
vertex -0.0185865163787321 5.486999359722581 0.0
vertex -0.019508133073428857 7.131481357903888 0.0
vertex -0.015608568815236312 7.093880616597998 0.0
endloop
endfacet
facet normal 0.0 0.0 -1.0
outer loop
vertex -0.0185865163787321 5.486999359722581 0.0
vertex -0.015608568815236312 7.093880616597998 0.0
vertex -0.015608568815236312 5.5317396165979975 0.0
endloop
endfacet
facet normal 0.0 0.0 -1.0
outer loop
vertex -1.4559143714279423 5.646888335900913 0.0
vertex -0.3613888308155818 5.194264788927884 0.0
vertex -1.9167678308155818 5.194264788927884 0.0
endloop
endfacet
facet normal 0.0 0.0 -1.0
outer loop
vertex -0.3613888308155818 5.194264788927884 0.0
vertex -1.4559143714279423 5.646888335900913 0.0
vertex -1.2749456989160624 5.580788096577065 0.0
endloop
endfacet
facet normal 0.0 0.0 -1.0
outer loop
vertex -0.3613888308155818 5.194264788927884 0.0
vertex -1.2749456989160624 5.580788096577065 0.0
vertex -1.0830353835647424 5.5637783073032665 0.0
endloop
endfacet
facet normal 0.0 0.0 -1.0
outer loop
vertex -0.3613888308155818 5.194264788927884 0.0
vertex -1.0830353835647424 5.5637783073032665 0.0
vertex -0.8932617962183832 5.597018157108523 0.0
endloop
endfacet
facet normal 0.0 0.0 -1.0
outer loop
vertex -0.3613888308155818 5.194264788927884 0.0
vertex -0.8932617962183832 5.597018157108523 0.0
vertex -0.7185576932389584 5.678242405160054 0.0
endloop
endfacet
facet normal 0.0 0.0 -1.0
outer loop
vertex -0.3613888308155818 5.194264788927884 0.0
vertex -0.7185576932389584 5.678242405160054 0.0
vertex -0.5708288705323346 5.8019157531825645 0.0
endloop
endfacet
facet normal 0.0 0.0 -1.0
outer loop
vertex -0.3613888308155818 5.194264788927884 0.0
vertex -0.5708288705323346 5.8019157531825645 0.0
vertex -0.4601428032325454 5.9596100668881915 0.0
endloop
endfacet
facet normal 0.0 0.0 -1.0
outer loop
vertex -0.3613888308155818 5.194264788927884 0.0
vertex -0.4601428032325454 5.9596100668881915 0.0
vertex -0.39404256390869696 6.1405787394000715 0.0
endloop
endfacet
facet normal 0.0 0.0 -1.0
outer loop
vertex -0.3613888308155818 5.194264788927884 0.0
vertex -0.39404256390869696 6.1405787394000715 0.0
vertex -0.3770327746348989 6.332489054751392 0.0
endloop
endfacet
facet normal 0.0 0.0 -1.0
outer loop
vertex -2.225684151972863 5.4209339124132745 0.0
vertex -1.8037623041340298 6.06836825465352 0.0
vertex -1.7274888002087794 5.910232500950643 0.0
endloop
endfacet
facet normal 0.0 0.0 -1.0
outer loop
vertex -1.8037623041340298 6.06836825465352 0.0
vertex -2.225684151972863 5.4209339124132745 0.0
vertex -2.1985806087372324 7.057497864809064 0.0
endloop
endfacet
facet normal 0.0 0.0 -1.0
outer loop
vertex -1.8037623041340298 6.06836825465352 0.0
vertex -2.1985806087372324 7.057497864809064 0.0
vertex -2.196066803105916 7.0976486453753695 0.0
endloop
endfacet
facet normal 0.0 0.0 -1.0
outer loop
vertex -1.8037623041340298 6.06836825465352 0.0
vertex -2.196066803105916 7.0976486453753695 0.0
vertex -2.188564647814804 7.137172335294502 0.0
endloop
endfacet
facet normal 0.0 0.0 -1.0
outer loop
vertex -1.8037623041340298 6.06836825465352 0.0
vertex -2.188564647814804 7.137172335294502 0.0
vertex -2.176191314469288 7.175451638067103 0.0
endloop
endfacet
facet normal 0.0 0.0 -1.0
outer loop
vertex -1.8037623041340298 6.06836825465352 0.0
vertex -2.176191314469288 7.175451638067103 0.0
vertex -2.1591400546452015 7.211888692520601 0.0
endloop
endfacet
facet normal 0.0 0.0 -1.0
outer loop
vertex -1.8037623041340298 6.06836825465352 0.0
vertex -2.1591400546452015 7.211888692520601 0.0
vertex -2.1376771816098676 7.245914410439622 0.0
endloop
endfacet
facet normal 0.0 0.0 -1.0
outer loop
vertex -1.8037623041340298 6.06836825465352 0.0
vertex -2.1376771816098676 7.245914410439622 0.0
vertex -2.1121379109369833 7.2769973648090645 0.0
endloop
endfacet
facet normal 0.0 0.0 -1.0
outer loop
vertex -1.8037623041340298 6.06836825465352 0.0
vertex -2.1121379109369833 7.2769973648090645 0.0
vertex -2.082921124978242 7.304652089849765 0.0
endloop
endfacet
facet normal 0.0 0.0 -1.0
outer loop
vertex -1.8037623041340298 6.06836825465352 0.0
vertex -2.082921124978242 7.304652089849765 0.0
vertex -1.8402139388980534 6.240111791135223 0.0
endloop
endfacet
facet normal 0.0 0.0 -1.0
outer loop
vertex -1.8402139388980534 6.240111791135223 0.0
vertex -2.082921124978242 7.304652089849765 0.0
vertex -2.0504831429622308 7.328446663213551 0.0
endloop
endfacet
facet normal 0.0 0.0 -1.0
outer loop
vertex -1.8402139388980534 6.240111791135223 0.0
vertex -2.0504831429622308 7.328446663213551 0.0
vertex -2.0153305940216475 7.348009451915972 0.0
endloop
endfacet
facet normal 0.0 0.0 -1.0
outer loop
vertex -1.8402139388980534 6.240111791135223 0.0
vertex -2.0153305940216475 7.348009451915972 0.0
vertex -1.9780125044606887 7.363034916646088 0.0
endloop
endfacet
facet normal 0.0 0.0 -1.0
outer loop
vertex -1.8402139388980534 6.240111791135223 0.0
vertex -1.9780125044606887 7.363034916646088 0.0
vertex -1.9391117228467794 7.37328838379933 0.0
endloop
endfacet
facet normal 0.0 0.0 -1.0
outer loop
vertex -1.8402139388980534 6.240111791135223 0.0
vertex -1.9391117228467794 7.37328838379933 0.0
vertex -1.89923581685292 7.3786097107019515 0.0
endloop
endfacet
facet normal 0.0 0.0 -1.0
outer loop
vertex -1.093232928496993 6.853909661521636 0.0
vertex -1.1898540636462795 6.69995717637493 0.0
vertex -1.2396340507687564 6.834635588124962 0.0
endloop
endfacet
facet normal 0.0 0.0 -1.0
outer loop
vertex -1.1898540636462795 6.69995717637493 0.0
vertex -1.093232928496993 6.853909661521636 0.0
vertex -1.0005130636462796 6.69995717637493 0.0
endloop
endfacet
facet normal 0.0 0.0 -1.0
outer loop
vertex -1.0005130636462796 6.69995717637493 0.0
vertex -1.093232928496993 6.853909661521636 0.0
vertex -0.9468318062252299 6.834635588124961 0.0
endloop
endfacet
facet normal 0.0 0.0 -1.0
outer loop
vertex -1.0005130636462796 6.69995717637493 0.0
vertex -0.9468318062252299 6.834635588124961 0.0
vertex -1.0005130636462796 6.45949617637493 0.0
endloop
endfacet
facet normal 0.0 0.0 -1.0
outer loop
vertex -1.0005130636462796 6.45949617637493 0.0
vertex -0.9468318062252299 6.834635588124961 0.0
vertex -0.7635210636462796 6.45949617637493 0.0
endloop
endfacet
facet normal 0.0 0.0 -1.0
outer loop
vertex -0.7635210636462796 6.45949617637493 0.0
vertex -0.9468318062252299 6.834635588124961 0.0
vertex -0.8104076784969935 6.778126864185006 0.0
endloop
endfacet
facet normal 0.0 0.0 -1.0
outer loop
vertex -0.7635210636462796 6.45949617637493 0.0
vertex -0.8104076784969935 6.778126864185006 0.0
vertex -0.6932576241654325 6.688234465853197 0.0
endloop
endfacet
facet normal 0.0 0.0 -1.0
outer loop
vertex -0.7635210636462796 6.45949617637493 0.0
vertex -0.6932576241654325 6.688234465853197 0.0
vertex -0.7635210636462796 6.26640817637493 0.0
endloop
endfacet
facet normal 0.0 0.0 -1.0
outer loop
vertex -0.7635210636462796 6.26640817637493 0.0
vertex -0.6932576241654325 6.688234465853197 0.0
vertex -0.693257624165433 5.888283857190076 0.0
endloop
endfacet
facet normal 0.0 0.0 -1.0
outer loop
vertex -0.693257624165433 5.888283857190076 0.0
vertex -0.6932576241654325 6.688234465853197 0.0
vertex -0.6033652258336245 6.005433911521637 0.0
endloop
endfacet
facet normal 0.0 0.0 -1.0
outer loop
vertex -0.6033652258336245 6.005433911521637 0.0
vertex -0.6932576241654325 6.688234465853197 0.0
vertex -0.6033652258336242 6.571084411521636 0.0
endloop
endfacet
facet normal 0.0 0.0 -1.0
outer loop
vertex -0.6033652258336245 6.005433911521637 0.0
vertex -0.6033652258336242 6.571084411521636 0.0
vertex -0.5468565018936695 6.141858039249874 0.0
endloop
endfacet
facet normal 0.0 0.0 -1.0
outer loop
vertex -0.5468565018936695 6.141858039249874 0.0
vertex -0.6033652258336242 6.571084411521636 0.0
vertex -0.5468565018936694 6.4346602837934 0.0
endloop
endfacet
facet normal 0.0 0.0 -1.0
outer loop
vertex -0.5468565018936695 6.141858039249874 0.0
vertex -0.5468565018936694 6.4346602837934 0.0
vertex -0.5275824284969941 6.288259161521637 0.0
endloop
endfacet
facet normal 0.0 0.0 -1.0
outer loop
vertex -0.7635210636462796 6.26640817637493 0.0
vertex -1.0005130636462796 5.84745017637493 0.0
vertex -1.0005130636462796 6.26640817637493 0.0
endloop
endfacet
facet normal 0.0 0.0 -1.0
outer loop
vertex -1.0005130636462796 5.84745017637493 0.0
vertex -0.7635210636462796 6.26640817637493 0.0
vertex -0.9468318062252308 5.741882734918313 0.0
endloop
endfacet
facet normal 0.0 0.0 -1.0
outer loop
vertex -0.9468318062252308 5.741882734918313 0.0
vertex -0.7635210636462796 6.26640817637493 0.0
vertex -0.8104076784969942 5.7983914588582675 0.0
endloop
endfacet
facet normal 0.0 0.0 -1.0
outer loop
vertex -0.8104076784969942 5.7983914588582675 0.0
vertex -0.7635210636462796 6.26640817637493 0.0
vertex -0.693257624165433 5.888283857190076 0.0
endloop
endfacet
facet normal 0.0 0.0 -1.0
outer loop
vertex -1.6396093551003177 6.434660283793401 0.0
vertex -1.6396093551003181 6.1418580392498745 0.0
vertex -1.6588834284969933 6.288259161521638 0.0
endloop
endfacet
facet normal 0.0 0.0 -1.0
outer loop
vertex -1.6396093551003181 6.1418580392498745 0.0
vertex -1.6396093551003177 6.434660283793401 0.0
vertex -1.5831006311603633 6.005433911521638 0.0
endloop
endfacet
facet normal 0.0 0.0 -1.0
outer loop
vertex -1.5831006311603633 6.005433911521638 0.0
vertex -1.6396093551003177 6.434660283793401 0.0
vertex -1.5831006311603626 6.571084411521637 0.0
endloop
endfacet
facet normal 0.0 0.0 -1.0
outer loop
vertex -1.5831006311603633 6.005433911521638 0.0
vertex -1.5831006311603626 6.571084411521637 0.0
vertex -1.4932082328285547 5.888283857190077 0.0
endloop
endfacet
facet normal 0.0 0.0 -1.0
outer loop
vertex -1.4932082328285547 5.888283857190077 0.0
vertex -1.5831006311603626 6.571084411521637 0.0
vertex -1.493208232828554 6.688234465853198 0.0
endloop
endfacet
facet normal 0.0 0.0 -1.0
outer loop
vertex -1.4932082328285547 5.888283857190077 0.0
vertex -1.493208232828554 6.688234465853198 0.0
vertex -1.3760581784969936 5.7983914588582675 0.0
endloop
endfacet
facet normal 0.0 0.0 -1.0
outer loop
vertex -1.3760581784969936 5.7983914588582675 0.0
vertex -1.493208232828554 6.688234465853198 0.0
vertex -1.4303310636462796 6.26640817637493 0.0
endloop
endfacet
facet normal 0.0 0.0 -1.0
outer loop
vertex -1.3760581784969936 5.7983914588582675 0.0
vertex -1.4303310636462796 6.26640817637493 0.0
vertex -1.1861890636462795 6.26640817637493 0.0
endloop
endfacet
facet normal 0.0 0.0 -1.0
outer loop
vertex -1.3760581784969936 5.7983914588582675 0.0
vertex -1.1861890636462795 6.26640817637493 0.0
vertex -1.239634050768757 5.741882734918312 0.0
endloop
endfacet
facet normal 0.0 0.0 -1.0
outer loop
vertex -1.239634050768757 5.741882734918312 0.0
vertex -1.1861890636462795 6.26640817637493 0.0
vertex -1.1861890636462795 5.84745017637493 0.0
endloop
endfacet
facet normal 0.0 0.0 -1.0
outer loop
vertex -1.239634050768757 5.741882734918312 0.0
vertex -1.1861890636462795 5.84745017637493 0.0
vertex -1.0932329284969937 5.722608661521638 0.0
endloop
endfacet
facet normal 0.0 0.0 -1.0
outer loop
vertex -1.0932329284969937 5.722608661521638 0.0
vertex -1.1861890636462795 5.84745017637493 0.0
vertex -1.0005130636462796 5.84745017637493 0.0
endloop
endfacet
facet normal 0.0 0.0 -1.0
outer loop
vertex -1.0932329284969937 5.722608661521638 0.0
vertex -1.0005130636462796 5.84745017637493 0.0
vertex -0.9468318062252308 5.741882734918313 0.0
endloop
endfacet
facet normal 0.0 0.0 -1.0
outer loop
vertex -1.493208232828554 6.688234465853198 0.0
vertex -1.4230440636462796 6.45949617637493 0.0
vertex -1.4303310636462796 6.26640817637493 0.0
endloop
endfacet
facet normal 0.0 0.0 -1.0
outer loop
vertex -1.4230440636462796 6.45949617637493 0.0
vertex -1.493208232828554 6.688234465853198 0.0
vertex -1.376058178496993 6.7781268641850065 0.0
endloop
endfacet
facet normal 0.0 0.0 -1.0
outer loop
vertex -1.4230440636462796 6.45949617637493 0.0
vertex -1.376058178496993 6.7781268641850065 0.0
vertex -1.1898540636462795 6.45949617637493 0.0
endloop
endfacet
facet normal 0.0 0.0 -1.0
outer loop
vertex -1.1898540636462795 6.45949617637493 0.0
vertex -1.376058178496993 6.7781268641850065 0.0
vertex -1.2396340507687564 6.834635588124962 0.0
endloop
endfacet
facet normal 0.0 0.0 -1.0
outer loop
vertex -1.1898540636462795 6.45949617637493 0.0
vertex -1.2396340507687564 6.834635588124962 0.0
vertex -1.1898540636462795 6.69995717637493 0.0
endloop
endfacet
facet normal 0.0 0.0 1.0
outer loop
vertex -2.225684151972863 5.4209339124132745 0.19419399999999998
vertex -1.8037623041340298 6.06836825465352 0.19419399999999998
vertex -2.1985806087372324 7.057497864809064 0.19419399999999998
endloop
endfacet
facet normal 0.0 0.0 1.0
outer loop
vertex -1.8037623041340298 6.06836825465352 0.19419399999999998
vertex -2.225684151972863 5.4209339124132745 0.19419399999999998
vertex -1.7274888002087794 5.910232500950643 0.19419399999999998
endloop
endfacet
facet normal 0.0 0.0 1.0
outer loop
vertex -2.1985806087372324 7.057497864809064 0.19419399999999998
vertex -1.8037623041340298 6.06836825465352 0.19419399999999998
vertex -2.196066803105916 7.0976486453753695 0.19419399999999998
endloop
endfacet
facet normal 0.0 0.0 1.0
outer loop
vertex -2.196066803105916 7.0976486453753695 0.19419399999999998
vertex -1.8037623041340298 6.06836825465352 0.19419399999999998
vertex -2.188564647814804 7.137172335294502 0.19419399999999998
endloop
endfacet
facet normal 0.0 0.0 1.0
outer loop
vertex -2.188564647814804 7.137172335294502 0.19419399999999998
vertex -1.8037623041340298 6.06836825465352 0.19419399999999998
vertex -2.176191314469288 7.175451638067103 0.19419399999999998
endloop
endfacet
facet normal 0.0 0.0 1.0
outer loop
vertex -2.176191314469288 7.175451638067103 0.19419399999999998
vertex -1.8037623041340298 6.06836825465352 0.19419399999999998
vertex -2.1591400546452015 7.211888692520601 0.19419399999999998
endloop
endfacet
facet normal 0.0 0.0 1.0
outer loop
vertex -2.1591400546452015 7.211888692520601 0.19419399999999998
vertex -1.8037623041340298 6.06836825465352 0.19419399999999998
vertex -2.1376771816098676 7.245914410439622 0.19419399999999998
endloop
endfacet
facet normal 0.0 0.0 1.0
outer loop
vertex -2.1376771816098676 7.245914410439622 0.19419399999999998
vertex -1.8037623041340298 6.06836825465352 0.19419399999999998
vertex -2.1121379109369833 7.2769973648090645 0.19419399999999998
endloop
endfacet
facet normal 0.0 0.0 1.0
outer loop
vertex -2.1121379109369833 7.2769973648090645 0.19419399999999998
vertex -1.8037623041340298 6.06836825465352 0.19419399999999998
vertex -2.082921124978242 7.304652089849765 0.19419399999999998
endloop
endfacet
facet normal 0.0 0.0 1.0
outer loop
vertex -2.082921124978242 7.304652089849765 0.19419399999999998
vertex -1.8037623041340298 6.06836825465352 0.19419399999999998
vertex -1.8402139388980534 6.240111791135223 0.19419399999999998
endloop
endfacet
facet normal 0.0 0.0 1.0
outer loop
vertex -2.082921124978242 7.304652089849765 0.19419399999999998
vertex -1.8402139388980534 6.240111791135223 0.19419399999999998
vertex -2.0504831429622308 7.328446663213551 0.19419399999999998
endloop
endfacet
facet normal 0.0 0.0 1.0
outer loop
vertex -2.0504831429622308 7.328446663213551 0.19419399999999998
vertex -1.8402139388980534 6.240111791135223 0.19419399999999998
vertex -2.0153305940216475 7.348009451915972 0.19419399999999998
endloop
endfacet
facet normal 0.0 0.0 1.0
outer loop
vertex -2.0153305940216475 7.348009451915972 0.19419399999999998
vertex -1.8402139388980534 6.240111791135223 0.19419399999999998
vertex -1.9780125044606887 7.363034916646088 0.19419399999999998
endloop
endfacet
facet normal 0.0 0.0 1.0
outer loop
vertex -1.9780125044606887 7.363034916646088 0.19419399999999998
vertex -1.8402139388980534 6.240111791135223 0.19419399999999998
vertex -1.9391117228467794 7.37328838379933 0.19419399999999998
endloop
endfacet
facet normal 0.0 0.0 1.0
outer loop
vertex -1.9391117228467794 7.37328838379933 0.19419399999999998
vertex -1.8402139388980534 6.240111791135223 0.19419399999999998
vertex -1.89923581685292 7.3786097107019515 0.19419399999999998
endloop
endfacet
facet normal 0.0 0.0 1.0
outer loop
vertex -0.3613888308155818 5.194264788927884 0.19419399999999998
vertex -1.4559143714279423 5.646888335900913 0.19419399999999998
vertex -1.9167678308155818 5.194264788927884 0.19419399999999998
endloop
endfacet
facet normal 0.0 0.0 1.0
outer loop
vertex -1.4559143714279423 5.646888335900913 0.19419399999999998
vertex -0.3613888308155818 5.194264788927884 0.19419399999999998
vertex -1.2749456989160624 5.580788096577065 0.19419399999999998
endloop
endfacet
facet normal 0.0 0.0 1.0
outer loop
vertex -1.2749456989160624 5.580788096577065 0.19419399999999998
vertex -0.3613888308155818 5.194264788927884 0.19419399999999998
vertex -1.0830353835647424 5.5637783073032665 0.19419399999999998
endloop
endfacet
facet normal 0.0 0.0 1.0
outer loop
vertex -1.0830353835647424 5.5637783073032665 0.19419399999999998
vertex -0.3613888308155818 5.194264788927884 0.19419399999999998
vertex -0.8932617962183832 5.597018157108523 0.19419399999999998
endloop
endfacet
facet normal 0.0 0.0 1.0
outer loop
vertex -0.8932617962183832 5.597018157108523 0.19419399999999998
vertex -0.3613888308155818 5.194264788927884 0.19419399999999998
vertex -0.7185576932389584 5.678242405160054 0.19419399999999998
endloop
endfacet
facet normal 0.0 0.0 1.0
outer loop
vertex -0.7185576932389584 5.678242405160054 0.19419399999999998
vertex -0.3613888308155818 5.194264788927884 0.19419399999999998
vertex -0.5708288705323346 5.8019157531825645 0.19419399999999998
endloop
endfacet
facet normal 0.0 0.0 1.0
outer loop
vertex -0.5708288705323346 5.8019157531825645 0.19419399999999998
vertex -0.3613888308155818 5.194264788927884 0.19419399999999998
vertex -0.4601428032325454 5.9596100668881915 0.19419399999999998
endloop
endfacet
facet normal 0.0 0.0 1.0
outer loop
vertex -0.4601428032325454 5.9596100668881915 0.19419399999999998
vertex -0.3613888308155818 5.194264788927884 0.19419399999999998
vertex -0.39404256390869696 6.1405787394000715 0.19419399999999998
endloop
endfacet
facet normal 0.0 0.0 1.0
outer loop
vertex -0.39404256390869696 6.1405787394000715 0.19419399999999998
vertex -0.3613888308155818 5.194264788927884 0.19419399999999998
vertex -0.3770327746348989 6.332489054751392 0.19419399999999998
endloop
endfacet
facet normal 0.0 0.0 1.0
outer loop
vertex -1.89923581685292 7.3786097107019515 0.19419399999999998
vertex -1.4348011808317844 6.962060496518949 0.19419399999999998
vertex -0.31182381685292015 7.3786097107019515 0.19419399999999998
endloop
endfacet
facet normal 0.0 0.0 1.0
outer loop
vertex -1.4348011808317844 6.962060496518949 0.19419399999999998
vertex -1.89923581685292 7.3786097107019515 0.19419399999999998
vertex -1.5817942577435342 6.8660521669832875 0.19419399999999998
endloop
endfacet
facet normal 0.0 0.0 1.0
outer loop
vertex -1.5817942577435342 6.8660521669832875 0.19419399999999998
vertex -1.89923581685292 7.3786097107019515 0.19419399999999998
vertex -1.701718118901593 6.737822562269109 0.19419399999999998
endloop
endfacet
facet normal 0.0 0.0 1.0
outer loop
vertex -1.701718118901593 6.737822562269109 0.19419399999999998
vertex -1.89923581685292 7.3786097107019515 0.19419399999999998
vertex -1.7876828201833206 6.5847388135112634 0.19419399999999998
endloop
endfacet
facet normal 0.0 0.0 1.0
outer loop
vertex -1.7876828201833206 6.5847388135112634 0.19419399999999998
vertex -1.89923581685292 7.3786097107019515 0.19419399999999998
vertex -1.8347494613345803 6.415595988387198 0.19419399999999998
endloop
endfacet
facet normal 0.0 0.0 1.0
outer loop
vertex -1.8347494613345803 6.415595988387198 0.19419399999999998
vertex -1.89923581685292 7.3786097107019515 0.19419399999999998
vertex -1.8402139388980534 6.240111791135223 0.19419399999999998
endloop
endfacet
facet normal 0.0 0.0 1.0
outer loop
vertex -0.31182381685292015 7.3786097107019515 0.19419399999999998
vertex -1.4348011808317844 6.962060496518949 0.19419399999999998
vertex -1.2691840305805129 7.0203316175212045 0.19419399999999998
endloop
endfacet
facet normal 0.0 0.0 1.0
outer loop
vertex -0.31182381685292015 7.3786097107019515 0.19419399999999998
vertex -1.2691840305805129 7.0203316175212045 0.19419399999999998
vertex -1.0944579518488255 7.037517699426629 0.19419399999999998
endloop
endfacet
facet normal 0.0 0.0 1.0
outer loop
vertex -0.31182381685292015 7.3786097107019515 0.19419399999999998
vertex -1.0944579518488255 7.037517699426629 0.19419399999999998
vertex -0.9206614216137322 7.012631356214857 0.19419399999999998
endloop
endfacet
facet normal 0.0 0.0 1.0
outer loop
vertex -0.31182381685292015 7.3786097107019515 0.19419399999999998
vertex -0.9206614216137322 7.012631356214857 0.19419399999999998
vertex -0.765486493641968 6.950202968353311 0.19419399999999998
endloop
endfacet
facet normal 0.0 0.0 1.0
outer loop
vertex -0.31182381685292015 7.3786097107019515 0.19419399999999998
vertex -0.765486493641968 6.950202968353311 0.19419399999999998
vertex -0.6151702205141969 6.844695567783799 0.19419399999999998
endloop
endfacet
facet normal 0.0 0.0 1.0
outer loop
vertex -0.31182381685292015 7.3786097107019515 0.19419399999999998
vertex -0.6151702205141969 6.844695567783799 0.19419399999999998
vertex -0.4914968724916863 6.696966745077176 0.19419399999999998
endloop
endfacet
facet normal 0.0 0.0 1.0
outer loop
vertex -0.31182381685292015 7.3786097107019515 0.19419399999999998
vertex -0.4914968724916863 6.696966745077176 0.19419399999999998
vertex -0.4102726244401552 6.5222626420977505 0.19419399999999998
endloop
endfacet
facet normal 0.0 0.0 1.0
outer loop
vertex -0.31182381685292015 7.3786097107019515 0.19419399999999998
vertex -0.4102726244401552 6.5222626420977505 0.19419399999999998
vertex -0.3770327746348989 6.332489054751392 0.19419399999999998
endloop
endfacet
facet normal 0.0 0.0 1.0
outer loop
vertex -0.31182381685292015 7.3786097107019515 0.19419399999999998
vertex -0.3770327746348989 6.332489054751392 0.19419399999999998
vertex -0.3613888308155818 5.194264788927884 0.19419399999999998
endloop
endfacet
facet normal 0.0 0.0 1.0
outer loop
vertex -0.31182381685292015 7.3786097107019515 0.19419399999999998
vertex -0.3613888308155818 5.194264788927884 0.19419399999999998
vertex -0.3165894063953162 5.196154320240709 0.19419399999999998
endloop
endfacet
facet normal 0.0 0.0 1.0
outer loop
vertex -0.31182381685292015 7.3786097107019515 0.19419399999999998
vertex -0.3165894063953162 5.196154320240709 0.19419399999999998
vertex -0.2724356125119863 5.203964649470494 0.19419399999999998
endloop
endfacet
facet normal 0.0 0.0 1.0
outer loop
vertex -0.31182381685292015 7.3786097107019515 0.19419399999999998
vertex -0.2724356125119863 5.203964649470494 0.19419399999999998
vertex -0.2740983209167922 7.3761994608125345 0.19419399999999998
endloop
endfacet
facet normal 0.0 0.0 1.0
outer loop
vertex -0.2740983209167922 7.3761994608125345 0.19419399999999998
vertex -0.2724356125119863 5.203964649470494 0.19419399999999998
vertex -0.23698627625299648 7.369007904024977 0.19419399999999998
endloop
endfacet
facet normal 0.0 0.0 1.0
outer loop
vertex -0.23698627625299648 7.369007904024977 0.19419399999999998
vertex -0.2724356125119863 5.203964649470494 0.19419399999999998
vertex -0.2297064633050316 5.21755797743016 0.19419399999999998
endloop
endfacet
facet normal 0.0 0.0 1.0
outer loop
vertex -0.23698627625299648 7.369007904024977 0.19419399999999998
vertex -0.2297064633050316 5.21755797743016 0.19419399999999998
vertex -0.2010911588517863 7.357151981669058 0.19419399999999998
endloop
endfacet
facet normal 0.0 0.0 1.0
outer loop
vertex -0.2010911588517863 7.357151981669058 0.19419399999999998
vertex -0.2297064633050316 5.21755797743016 0.19419399999999998
vertex -0.1891558376254157 5.236694474339494 0.19419399999999998
endloop
endfacet
facet normal 0.0 0.0 1.0
outer loop
vertex -0.2010911588517863 7.357151981669058 0.19419399999999998
vertex -0.1891558376254157 5.236694474339494 0.19419399999999998
vertex -0.16699665634652153 7.340824481950034 0.19419399999999998
endloop
endfacet
facet normal 0.0 0.0 1.0
outer loop
vertex -0.16699665634652153 7.340824481950034 0.19419399999999998
vertex -0.1891558376254157 5.236694474339494 0.19419399999999998
vertex -0.15149917820159398 5.261036511189509 0.19419399999999998
endloop
endfacet
facet normal 0.0 0.0 1.0
outer loop
vertex -0.16699665634652153 7.340824481950034 0.19419399999999998
vertex -0.15149917820159398 5.261036511189509 0.19419399999999998
vertex -0.1352571767157427 7.320290905035049 0.19419399999999998
endloop
endfacet
facet normal 0.0 0.0 1.0
outer loop
vertex -0.1352571767157427 7.320290905035049 0.19419399999999998
vertex -0.15149917820159398 5.261036511189509 0.19419399999999998
vertex -0.11740086894161136 5.290154616597997 0.19419399999999998
endloop
endfacet
facet normal 0.0 0.0 1.0
outer loop
vertex -0.1352571767157427 7.320290905035049 0.19419399999999998
vertex -0.11740086894161136 5.290154616597997 0.19419399999999998
vertex -0.10638883309937056 7.29588514577615 0.19419399999999998
endloop
endfacet
facet normal 0.0 0.0 1.0
outer loop
vertex -0.10638883309937056 7.29588514577615 0.19419399999999998
vertex -0.11740086894161136 5.290154616597997 0.19419399999999998
vertex -0.08746251307609176 5.323535054058263 0.19419399999999998
endloop
endfacet
facet normal 0.0 0.0 1.0
outer loop
vertex -0.10638883309937056 7.29588514577615 0.19419399999999998
vertex -0.08746251307609176 5.323535054058263 0.19419399999999998
vertex -0.08086105132421387 7.268004064272804 0.19419399999999998
endloop
endfacet
facet normal 0.0 0.0 1.0
outer loop
vertex -0.08086105132421387 7.268004064272804 0.19419399999999998
vertex -0.08746251307609176 5.323535054058263 0.19419399999999998
vertex -0.06221231895316581 5.360588885894172 0.19419399999999998
endloop
endfacet
facet normal 0.0 0.0 1.0
outer loop
vertex -0.08086105132421387 7.268004064272804 0.19419399999999998
vertex -0.06221231895316581 5.360588885894172 0.19419399999999998
vertex -0.05908893660814174 7.237101032561556 0.19419399999999998
endloop
endfacet
facet normal 0.0 0.0 1.0
outer loop
vertex -0.05908893660814174 7.237101032561556 0.19419399999999998
vertex -0.06221231895316581 5.360588885894172 0.19419399999999998
vertex -0.042095780753862 5.4006623640043285 0.19419399999999998
endloop
endfacet
facet normal 0.0 0.0 1.0
outer loop
vertex -0.05908893660814174 7.237101032561556 0.19419399999999998
vertex -0.042095780753862 5.4006623640043285 0.19419399999999998
vertex -0.041426523567333895 7.203678562369601 0.19419399999999998
endloop
endfacet
facet normal 0.0 0.0 1.0
outer loop
vertex -0.041426523567333895 7.203678562369601 0.19419399999999998
vertex -0.042095780753862 5.4006623640043285 0.19419399999999998
vertex -0.027467818549946843 5.443048464069445 0.19419399999999998
endloop
endfacet
facet normal 0.0 0.0 1.0
outer loop
vertex -0.041426523567333895 7.203678562369601 0.19419399999999998
vertex -0.027467818549946843 5.443048464069445 0.19419399999999998
vertex -0.028161019287700817 7.168280133811778 0.19419399999999998
endloop
endfacet
facet normal 0.0 0.0 1.0
outer loop
vertex -0.028161019287700817 7.168280133811778 0.19419399999999998
vertex -0.027467818549946843 5.443048464069445 0.19419399999999998
vertex -0.019508133073428857 7.131481357903888 0.19419399999999998
endloop
endfacet
facet normal 0.0 0.0 1.0
outer loop
vertex -0.019508133073428857 7.131481357903888 0.19419399999999998
vertex -0.027467818549946843 5.443048464069445 0.19419399999999998
vertex -0.0185865163787321 5.486999359722581 0.19419399999999998
endloop
endfacet
facet normal 0.0 0.0 1.0
outer loop
vertex -0.019508133073428857 7.131481357903888 0.19419399999999998
vertex -0.0185865163787321 5.486999359722581 0.19419399999999998
vertex -0.015608568815236312 7.093880616597998 0.19419399999999998
endloop
endfacet
facet normal 0.0 0.0 1.0
outer loop
vertex -0.015608568815236312 7.093880616597998 0.19419399999999998
vertex -0.0185865163787321 5.486999359722581 0.19419399999999998
vertex -0.015608568815236312 5.5317396165979975 0.19419399999999998
endloop
endfacet
facet normal -0.37323722263192666 -0.9277359406867914 0.0
outer loop
vertex -0.765486493641968 6.950202968353311 0.19419399999999998
vertex -0.9206614216137322 7.012631356214857 0.0
vertex -0.765486493641968 6.950202968353311 0.0
endloop
endfacet
facet normal -0.2593612664367773 -0.965780375381645 0.0
outer loop
vertex -0.9206614216137322 7.012631356214857 0.0
vertex -0.765486493641968 6.950202968353311 0.19419399999999998
vertex -0.9206614216137322 7.012631356214857 0.19419399999999998
endloop
endfacet
facet normal -0.2593612664367773 -0.965780375381645 0.0
outer loop
vertex -0.9206614216137322 7.012631356214857 0.19419399999999998
vertex -1.0944579518488255 7.037517699426629 0.0
vertex -0.9206614216137322 7.012631356214857 0.0
endloop
endfacet
facet normal -0.0220886174191359 -0.9997560167263367 0.0
outer loop
vertex -1.0944579518488255 7.037517699426629 0.0
vertex -0.9206614216137322 7.012631356214857 0.19419399999999998
vertex -1.0944579518488255 7.037517699426629 0.19419399999999998
endloop
endfacet
facet normal -0.0220886174191359 -0.9997560167263367 0.0
outer loop
vertex -1.0944579518488255 7.037517699426629 0.19419399999999998
vertex -1.2691840305805129 7.0203316175212045 0.0
vertex -1.0944579518488255 7.037517699426629 0.0
endloop
endfacet
facet normal 0.21645308129632296 -0.9762930213810438 0.0
outer loop
vertex -1.2691840305805129 7.0203316175212045 0.0
vertex -1.0944579518488255 7.037517699426629 0.19419399999999998
vertex -1.2691840305805129 7.0203316175212045 0.19419399999999998
endloop
endfacet
facet normal 0.21645308129632296 -0.9762930213810438 0.0
outer loop
vertex -1.2691840305805129 7.0203316175212045 0.19419399999999998
vertex -1.4348011808317844 6.962060496518949 0.0
vertex -1.2691840305805129 7.0203316175212045 0.0
endloop
endfacet
facet normal 0.4425589759865978 -0.896739400703289 0.0
outer loop
vertex -1.4348011808317844 6.962060496518949 0.0
vertex -1.2691840305805129 7.0203316175212045 0.19419399999999998
vertex -1.4348011808317844 6.962060496518949 0.19419399999999998
endloop
endfacet
facet normal 0.4425589759865978 -0.896739400703289 0.0
outer loop
vertex -1.4348011808317844 6.962060496518949 0.19419399999999998
vertex -1.5817942577435342 6.8660521669832875 0.0
vertex -1.4348011808317844 6.962060496518949 0.0
endloop
endfacet
facet normal 0.6432386828767539 -0.7656657213503677 0.0
outer loop
vertex -1.5817942577435342 6.8660521669832875 0.0
vertex -1.4348011808317844 6.962060496518949 0.19419399999999998
vertex -1.5817942577435342 6.8660521669832875 0.19419399999999998
endloop
endfacet
facet normal 0.6432386828767539 -0.7656657213503677 0.0
outer loop
vertex -1.5817942577435342 6.8660521669832875 0.0
vertex -1.701718118901593 6.737822562269109 0.19419399999999998
vertex -1.701718118901593 6.737822562269109 0.0
endloop
endfacet
facet normal 0.8069626201665593 -0.5906025140938037 0.0
outer loop
vertex -1.701718118901593 6.737822562269109 0.19419399999999998
vertex -1.5817942577435342 6.8660521669832875 0.0
vertex -1.5817942577435342 6.8660521669832875 0.19419399999999998
endloop
endfacet
facet normal 0.8069626201665593 -0.5906025140938037 0.0
outer loop
vertex -1.701718118901593 6.737822562269109 0.0
vertex -1.7876828201833206 6.5847388135112634 0.19419399999999998
vertex -1.7876828201833206 6.5847388135112634 0.0
endloop
endfacet
facet normal 0.9243244131064671 -0.38160762483915994 0.0
outer loop
vertex -1.7876828201833206 6.5847388135112634 0.19419399999999998
vertex -1.701718118901593 6.737822562269109 0.0
vertex -1.701718118901593 6.737822562269109 0.19419399999999998
endloop
endfacet
facet normal 0.9243244131064671 -0.38160762483915994 0.0
outer loop
vertex -1.7876828201833206 6.5847388135112634 0.0
vertex -1.8347494613345803 6.415595988387198 0.19419399999999998
vertex -1.8347494613345803 6.415595988387198 0.0
endloop
endfacet
facet normal 0.9885813151931522 -0.150688364683467 0.0
outer loop
vertex -1.8347494613345803 6.415595988387198 0.19419399999999998
vertex -1.7876828201833206 6.5847388135112634 0.0
vertex -1.7876828201833206 6.5847388135112634 0.19419399999999998
endloop
endfacet
facet normal 0.9885813151931522 -0.150688364683467 0.0
outer loop
vertex -1.8347494613345803 6.415595988387198 0.0
vertex -1.8402139388980534 6.240111791135223 0.19419399999999998
vertex -1.8402139388980534 6.240111791135223 0.0
endloop
endfacet
facet normal 0.9960415968525667 0.08888834197682699 0.0
outer loop
vertex -1.8402139388980534 6.240111791135223 0.19419399999999998
vertex -1.8347494613345803 6.415595988387198 0.0
vertex -1.8347494613345803 6.415595988387198 0.19419399999999998
endloop
endfacet
facet normal 0.9960415968525667 0.08888834197682699 0.0
outer loop
vertex -1.8402139388980534 6.240111791135223 0.0
vertex -1.8037623041340298 6.06836825465352 0.19419399999999998
vertex -1.8037623041340298 6.06836825465352 0.0
endloop
endfacet
facet normal 0.9462766451024716 0.3233581774651924 0.0
outer loop
vertex -1.8037623041340298 6.06836825465352 0.19419399999999998
vertex -1.8402139388980534 6.240111791135223 0.0
vertex -1.8402139388980534 6.240111791135223 0.19419399999999998
endloop
endfacet
facet normal 0.9462766451024716 0.3233581774651924 0.0
outer loop
vertex -1.8037623041340298 6.06836825465352 0.0
vertex -1.7274888002087794 5.910232500950643 0.19419399999999998
vertex -1.7274888002087794 5.910232500950643 0.0
endloop
endfacet
facet normal 0.900702984186991 0.4344354201450998 0.0
outer loop
vertex -1.7274888002087794 5.910232500950643 0.19419399999999998
vertex -1.8037623041340298 6.06836825465352 0.0
vertex -1.8037623041340298 6.06836825465352 0.19419399999999998
endloop
endfacet
facet normal 0.7007077104382818 -0.7134484596187317 0.0
outer loop
vertex -1.7274888002087794 5.910232500950643 0.19419399999999998
vertex -2.225684151972863 5.4209339124132745 0.0
vertex -1.7274888002087794 5.910232500950643 0.0
endloop
endfacet
facet normal 0.7007077104382818 -0.7134484596187317 0.0
outer loop
vertex -2.225684151972863 5.4209339124132745 0.0
vertex -1.7274888002087794 5.910232500950643 0.19419399999999998
vertex -2.225684151972863 5.4209339124132745 0.19419399999999998
endloop
endfacet
facet normal -0.999862890718199 0.01655897836965763 0.0
outer loop
vertex -2.1985806087372324 7.057497864809064 0.19419399999999998
vertex -2.225684151972863 5.4209339124132745 0.0
vertex -2.225684151972863 5.4209339124132745 0.19419399999999998
endloop
endfacet
facet normal -0.999862890718199 0.01655897836965763 0.0
outer loop
vertex -2.225684151972863 5.4209339124132745 0.0
vertex -2.1985806087372324 7.057497864809064 0.19419399999999998
vertex -2.1985806087372324 7.057497864809064 0.0
endloop
endfacet
facet normal -0.9921908037860195 0.12472934250789754 0.0
outer loop
vertex -2.196066803105916 7.0976486453753695 0.19419399999999998
vertex -2.1985806087372324 7.057497864809064 0.0
vertex -2.1985806087372324 7.057497864809064 0.19419399999999998
endloop
endfacet
facet normal -0.9980457914810373 0.0624867834585024 0.0
outer loop
vertex -2.1985806087372324 7.057497864809064 0.0
vertex -2.196066803105916 7.0976486453753695 0.19419399999999998
vertex -2.196066803105916 7.0976486453753695 0.0
endloop
endfacet
facet normal -0.9688851822350931 0.2475106131972327 0.0
outer loop
vertex -2.188564647814804 7.137172335294502 0.19419399999999998
vertex -2.196066803105916 7.0976486453753695 0.0
vertex -2.196066803105916 7.0976486453753695 0.19419399999999998
endloop
endfacet
facet normal -0.9921908037860195 0.12472934250789754 0.0
outer loop
vertex -2.196066803105916 7.0976486453753695 0.0
vertex -2.188564647814804 7.137172335294502 0.19419399999999998
vertex -2.188564647814804 7.137172335294502 0.0
endloop
endfacet
facet normal -0.9304471316903835 0.36642616599956146 0.0
outer loop
vertex -2.176191314469288 7.175451638067103 0.19419399999999998
vertex -2.188564647814804 7.137172335294502 0.0
vertex -2.188564647814804 7.137172335294502 0.19419399999999998
endloop
endfacet
facet normal -0.9688851822350931 0.2475106131972327 0.0
outer loop
vertex -2.188564647814804 7.137172335294502 0.0
vertex -2.176191314469288 7.175451638067103 0.19419399999999998
vertex -2.176191314469288 7.175451638067103 0.0
endloop
endfacet
facet normal -0.8774769927094632 0.4796187311454345 0.0
outer loop
vertex -2.1591400546452015 7.211888692520601 0.19419399999999998
vertex -2.176191314469288 7.175451638067103 0.0
vertex -2.176191314469288 7.175451638067103 0.19419399999999998
endloop
endfacet
facet normal -0.9304471316903835 0.36642616599956146 0.0
outer loop
vertex -2.176191314469288 7.175451638067103 0.0
vertex -2.1591400546452015 7.211888692520601 0.19419399999999998
vertex -2.1591400546452015 7.211888692520601 0.0
endloop
endfacet
facet normal -0.8108020737098984 0.5853204227324793 0.0
outer loop
vertex -2.1376771816098676 7.245914410439622 0.19419399999999998
vertex -2.1591400546452015 7.211888692520601 0.0
vertex -2.1591400546452015 7.211888692520601 0.19419399999999998
endloop
endfacet
facet normal -0.8774769927094632 0.4796187311454345 0.0
outer loop
vertex -2.1591400546452015 7.211888692520601 0.0
vertex -2.1376771816098676 7.245914410439622 0.19419399999999998
vertex -2.1376771816098676 7.245914410439622 0.0
endloop
endfacet
facet normal -0.7314637297417225 0.6818803502611938 0.0
outer loop
vertex -2.1121379109369833 7.2769973648090645 0.19419399999999998
vertex -2.1376771816098676 7.245914410439622 0.0
vertex -2.1376771816098676 7.245914410439622 0.19419399999999998
endloop
endfacet
facet normal -0.8108020737098984 0.5853204227324793 0.0
outer loop
vertex -2.1376771816098676 7.245914410439622 0.0
vertex -2.1121379109369833 7.2769973648090645 0.19419399999999998
vertex -2.1121379109369833 7.2769973648090645 0.0
endloop
endfacet
facet normal -0.7314637297417225 0.6818803502611938 0.0
outer loop
vertex -2.1121379109369833 7.2769973648090645 0.19419399999999998
vertex -2.082921124978242 7.304652089849765 0.0
vertex -2.1121379109369833 7.2769973648090645 0.0
endloop
endfacet
facet normal -0.6407010981956204 0.7677904028906105 0.0
outer loop
vertex -2.082921124978242 7.304652089849765 0.0
vertex -2.1121379109369833 7.2769973648090645 0.19419399999999998
vertex -2.082921124978242 7.304652089849765 0.19419399999999998
endloop
endfacet
facet normal -0.6407010981956204 0.7677904028906105 0.0
outer loop
vertex -2.082921124978242 7.304652089849765 0.19419399999999998
vertex -2.0504831429622308 7.328446663213551 0.0
vertex -2.082921124978242 7.304652089849765 0.0
endloop
endfacet
facet normal -0.5399317454688882 0.8417088037052479 0.0
outer loop
vertex -2.0504831429622308 7.328446663213551 0.0
vertex -2.082921124978242 7.304652089849765 0.19419399999999998
vertex -2.0504831429622308 7.328446663213551 0.19419399999999998
endloop
endfacet
facet normal -0.5399317454688882 0.8417088037052479 0.0
outer loop
vertex -2.0504831429622308 7.328446663213551 0.19419399999999998
vertex -2.0153305940216475 7.348009451915972 0.0
vertex -2.0504831429622308 7.328446663213551 0.0
endloop
endfacet
facet normal -0.43072952685710303 0.9024810661135535 0.0
outer loop
vertex -2.0153305940216475 7.348009451915972 0.0
vertex -2.0504831429622308 7.328446663213551 0.19419399999999998
vertex -2.0153305940216475 7.348009451915972 0.19419399999999998
endloop
endfacet
facet normal -0.43072952685710303 0.9024810661135535 0.0
outer loop
vertex -2.0153305940216475 7.348009451915972 0.19419399999999998
vertex -1.9780125044606887 7.363034916646088 0.0
vertex -2.0153305940216475 7.348009451915972 0.0
endloop
endfacet
facet normal -0.3148000054645405 0.9491580250724982 0.0
outer loop
vertex -1.9780125044606887 7.363034916646088 0.0
vertex -2.0153305940216475 7.348009451915972 0.19419399999999998
vertex -1.9780125044606887 7.363034916646088 0.19419399999999998
endloop
endfacet
facet normal -0.3148000054645405 0.9491580250724982 0.0
outer loop
vertex -1.9780125044606887 7.363034916646088 0.19419399999999998
vertex -1.9391117228467794 7.37328838379933 0.0
vertex -1.9780125044606887 7.363034916646088 0.0
endloop
endfacet
facet normal -0.19395381405030473 0.9810106615197105 0.0
outer loop
vertex -1.9391117228467794 7.37328838379933 0.0
vertex -1.9780125044606887 7.363034916646088 0.19419399999999998
vertex -1.9391117228467794 7.37328838379933 0.19419399999999998
endloop
endfacet
facet normal -0.19395381405030473 0.9810106615197105 0.0
outer loop
vertex -1.9391117228467794 7.37328838379933 0.19419399999999998
vertex -1.89923581685292 7.3786097107019515 0.0
vertex -1.9391117228467794 7.37328838379933 0.0
endloop
endfacet
facet normal -0.13227458707772596 0.991213112107289 0.0
outer loop
vertex -1.89923581685292 7.3786097107019515 0.0
vertex -1.9391117228467794 7.37328838379933 0.19419399999999998
vertex -1.89923581685292 7.3786097107019515 0.19419399999999998
endloop
endfacet
facet normal -0.0 1.0 0.0
outer loop
vertex -1.89923581685292 7.3786097107019515 0.19419399999999998
vertex -0.31182381685292015 7.3786097107019515 0.0
vertex -1.89923581685292 7.3786097107019515 0.0
endloop
endfacet
facet normal -0.0 1.0 0.0
outer loop
vertex -0.31182381685292015 7.3786097107019515 0.0
vertex -1.89923581685292 7.3786097107019515 0.19419399999999998
vertex -0.31182381685292015 7.3786097107019515 0.19419399999999998
endloop
endfacet
facet normal 0.0637591562548117 0.9979653150253642 0.0
outer loop
vertex -0.31182381685292015 7.3786097107019515 0.19419399999999998
vertex -0.2740983209167922 7.3761994608125345 0.0
vertex -0.31182381685292015 7.3786097107019515 0.0
endloop
endfacet
facet normal 0.12725885291515676 0.9918695399873505 0.0
outer loop
vertex -0.2740983209167922 7.3761994608125345 0.0
vertex -0.31182381685292015 7.3786097107019515 0.19419399999999998
vertex -0.2740983209167922 7.3761994608125345 0.19419399999999998
endloop
endfacet
facet normal 0.12725885291515676 0.9918695399873505 0.0
outer loop
vertex -0.2740983209167922 7.3761994608125345 0.19419399999999998
vertex -0.23698627625299648 7.369007904024977 0.0
vertex -0.2740983209167922 7.3761994608125345 0.0
endloop
endfacet
facet normal 0.2524483598005615 0.9676103687094338 0.0
outer loop
vertex -0.23698627625299648 7.369007904024977 0.0
vertex -0.2740983209167922 7.3761994608125345 0.19419399999999998
vertex -0.23698627625299648 7.369007904024977 0.19419399999999998
endloop
endfacet
facet normal 0.2524483598005615 0.9676103687094338 0.0
outer loop
vertex -0.23698627625299648 7.369007904024977 0.19419399999999998
vertex -0.2010911588517863 7.357151981669058 0.0
vertex -0.23698627625299648 7.369007904024977 0.0
endloop
endfacet
facet normal 0.37353282409673144 0.9276169626102791 0.0
outer loop
vertex -0.2010911588517863 7.357151981669058 0.0
vertex -0.23698627625299648 7.369007904024977 0.19419399999999998
vertex -0.2010911588517863 7.357151981669058 0.19419399999999998
endloop
endfacet
facet normal 0.37353282409673144 0.9276169626102791 0.0
outer loop
vertex -0.2010911588517863 7.357151981669058 0.19419399999999998
vertex -0.16699665634652153 7.340824481950034 0.0
vertex -0.2010911588517863 7.357151981669058 0.0
endloop
endfacet
facet normal 0.48854330101343024 0.8725396512680103 0.0
outer loop
vertex -0.16699665634652153 7.340824481950034 0.0
vertex -0.2010911588517863 7.357151981669058 0.19419399999999998
vertex -0.16699665634652153 7.340824481950034 0.19419399999999998
endloop
endfacet
facet normal 0.48854330101343024 0.8725396512680103 0.0
outer loop
vertex -0.16699665634652153 7.340824481950034 0.19419399999999998
vertex -0.1352571767157427 7.320290905035049 0.0
vertex -0.16699665634652153 7.340824481950034 0.0
endloop
endfacet
facet normal 0.5956096143834573 0.8032740424375665 0.0
outer loop
vertex -0.1352571767157427 7.320290905035049 0.0
vertex -0.16699665634652153 7.340824481950034 0.19419399999999998
vertex -0.1352571767157427 7.320290905035049 0.19419399999999998
endloop
endfacet
facet normal 0.5956096143834573 0.8032740424375665 0.0
outer loop
vertex -0.1352571767157427 7.320290905035049 0.19419399999999998
vertex -0.10638883309937056 7.29588514577615 0.0
vertex -0.1352571767157427 7.320290905035049 0.0
endloop
endfacet
facet normal 0.6929907674476938 0.720946458644646 0.0
outer loop
vertex -0.10638883309937056 7.29588514577615 0.0
vertex -0.1352571767157427 7.320290905035049 0.19419399999999998
vertex -0.10638883309937056 7.29588514577615 0.19419399999999998
endloop
endfacet
facet normal 0.6929907674476938 0.720946458644646 0.0
outer loop
vertex -0.10638883309937056 7.29588514577615 0.0
vertex -0.08086105132421387 7.268004064272804 0.19419399999999998
vertex -0.08086105132421387 7.268004064272804 0.0
endloop
endfacet
facet normal 0.7791032530641916 0.6268956221451815 0.0
outer loop
vertex -0.08086105132421387 7.268004064272804 0.19419399999999998
vertex -0.10638883309937056 7.29588514577615 0.0
vertex -0.10638883309937056 7.29588514577615 0.19419399999999998
endloop
endfacet
facet normal 0.7791032530641916 0.6268956221451815 0.0
outer loop
vertex -0.08086105132421387 7.268004064272804 0.0
vertex -0.05908893660814174 7.237101032561556 0.19419399999999998
vertex -0.05908893660814174 7.237101032561556 0.0
endloop
endfacet
facet normal 0.8525468029911607 0.5226508860698039 0.0
outer loop
vertex -0.05908893660814174 7.237101032561556 0.19419399999999998
vertex -0.08086105132421387 7.268004064272804 0.0
vertex -0.08086105132421387 7.268004064272804 0.19419399999999998
endloop
endfacet
facet normal 0.8525468029911607 0.5226508860698039 0.0
outer loop
vertex -0.05908893660814174 7.237101032561556 0.0
vertex -0.041426523567333895 7.203678562369601 0.19419399999999998
vertex -0.041426523567333895 7.203678562369601 0.0
endloop
endfacet
facet normal 0.9121271575368672 0.4099073657348876 0.0
outer loop
vertex -0.041426523567333895 7.203678562369601 0.19419399999999998
vertex -0.05908893660814174 7.237101032561556 0.0
vertex -0.05908893660814174 7.237101032561556 0.19419399999999998
endloop
endfacet
facet normal 0.9121271575368672 0.4099073657348876 0.0
outer loop
vertex -0.041426523567333895 7.203678562369601 0.0
vertex -0.028161019287700817 7.168280133811778 0.19419399999999998
vertex -0.028161019287700817 7.168280133811778 0.0
endloop
endfacet
facet normal 0.9568754853209599 0.29049837450797766 0.0
outer loop
vertex -0.028161019287700817 7.168280133811778 0.19419399999999998
vertex -0.041426523567333895 7.203678562369601 0.0
vertex -0.041426523567333895 7.203678562369601 0.19419399999999998
endloop
endfacet
facet normal 0.9568754853209599 0.29049837450797766 0.0
outer loop
vertex -0.028161019287700817 7.168280133811778 0.0
vertex -0.019508133073428857 7.131481357903888 0.19419399999999998
vertex -0.019508133073428857 7.131481357903888 0.0
endloop
endfacet
facet normal 0.9860641373640775 0.16636561244571485 0.0
outer loop
vertex -0.019508133073428857 7.131481357903888 0.19419399999999998
vertex -0.028161019287700817 7.168280133811778 0.0
vertex -0.028161019287700817 7.168280133811778 0.19419399999999998
endloop
endfacet
facet normal 0.9860641373640775 0.16636561244571485 0.0
outer loop
vertex -0.019508133073428857 7.131481357903888 0.0
vertex -0.015608568815236312 7.093880616597998 0.19419399999999998
vertex -0.015608568815236312 7.093880616597998 0.0
endloop
endfacet
facet normal 0.9946651385591092 0.10315649342231611 0.0
outer loop
vertex -0.015608568815236312 7.093880616597998 0.19419399999999998
vertex -0.019508133073428857 7.131481357903888 0.0
vertex -0.019508133073428857 7.131481357903888 0.19419399999999998
endloop
endfacet
facet normal 1.0 0.0 0.0
outer loop
vertex -0.015608568815236312 7.093880616597998 0.0
vertex -0.015608568815236312 5.5317396165979975 0.19419399999999998
vertex -0.015608568815236312 5.5317396165979975 0.0
endloop
endfacet
facet normal 1.0 0.0 0.0
outer loop
vertex -0.015608568815236312 5.5317396165979975 0.19419399999999998
vertex -0.015608568815236312 7.093880616597998 0.0
vertex -0.015608568815236312 7.093880616597998 0.19419399999999998
endloop
endfacet
facet normal 0.9977921629451993 -0.0664138507025538 0.0
outer loop
vertex -0.015608568815236312 5.5317396165979975 0.0
vertex -0.0185865163787321 5.486999359722581 0.19419399999999998
vertex -0.0185865163787321 5.486999359722581 0.0
endloop
endfacet
facet normal 0.9911784008697183 -0.1325344394840382 0.0
outer loop
vertex -0.0185865163787321 5.486999359722581 0.19419399999999998
vertex -0.015608568815236312 5.5317396165979975 0.0
vertex -0.015608568815236312 5.5317396165979975 0.19419399999999998
endloop
endfacet
facet normal 0.9911784008697183 -0.1325344394840382 0.0
outer loop
vertex -0.0185865163787321 5.486999359722581 0.0
vertex -0.027467818549946843 5.443048464069445 0.19419399999999998
vertex -0.027467818549946843 5.443048464069445 0.0
endloop
endfacet
facet normal 0.9648692447013043 -0.262730547575904 0.0
outer loop
vertex -0.027467818549946843 5.443048464069445 0.19419399999999998
vertex -0.0185865163787321 5.486999359722581 0.0
vertex -0.0185865163787321 5.486999359722581 0.19419399999999998
endloop
endfacet
facet normal 0.9648692447013043 -0.262730547575904 0.0
outer loop
vertex -0.027467818549946843 5.443048464069445 0.0
vertex -0.042095780753862 5.4006623640043285 0.19419399999999998
vertex -0.042095780753862 5.4006623640043285 0.0
endloop
endfacet
facet normal 0.9215367091531053 -0.3882912485277837 0.0
outer loop
vertex -0.042095780753862 5.4006623640043285 0.19419399999999998
vertex -0.027467818549946843 5.443048464069445 0.0
vertex -0.027467818549946843 5.443048464069445 0.19419399999999998
endloop
endfacet
facet normal 0.9215367091531053 -0.3882912485277837 0.0
outer loop
vertex -0.042095780753862 5.4006623640043285 0.0
vertex -0.06221231895316581 5.360588885894172 0.19419399999999998
vertex -0.06221231895316581 5.360588885894172 0.0
endloop
endfacet
facet normal 0.8619453187409314 -0.507001249999045 0.0
outer loop
vertex -0.06221231895316581 5.360588885894172 0.19419399999999998
vertex -0.042095780753862 5.4006623640043285 0.0
vertex -0.042095780753862 5.4006623640043285 0.19419399999999998
endloop
endfacet
facet normal 0.8619453187409314 -0.507001249999045 0.0
outer loop
vertex -0.06221231895316581 5.360588885894172 0.0
vertex -0.08746251307609176 5.323535054058263 0.19419399999999998
vertex -0.08746251307609176 5.323535054058263 0.0
endloop
endfacet
facet normal 0.7871464561804479 -0.6167661278982189 0.0
outer loop
vertex -0.08746251307609176 5.323535054058263 0.19419399999999998
vertex -0.06221231895316581 5.360588885894172 0.0
vertex -0.06221231895316581 5.360588885894172 0.19419399999999998
endloop
endfacet
facet normal 0.7871464561804479 -0.6167661278982189 0.0
outer loop
vertex -0.08746251307609176 5.323535054058263 0.0
vertex -0.11740086894161136 5.290154616597997 0.19419399999999998
vertex -0.11740086894161136 5.290154616597997 0.0
endloop
endfacet
facet normal 0.6984598126334687 -0.7156492787224896 0.0
outer loop
vertex -0.11740086894161136 5.290154616597997 0.19419399999999998
vertex -0.08746251307609176 5.323535054058263 0.0
vertex -0.08746251307609176 5.323535054058263 0.19419399999999998
endloop
endfacet
facet normal 0.6984598126334687 -0.7156492787224896 0.0
outer loop
vertex -0.11740086894161136 5.290154616597997 0.19419399999999998
vertex -0.15149917820159398 5.261036511189509 0.0
vertex -0.11740086894161136 5.290154616597997 0.0
endloop
endfacet
facet normal 0.5974501041351586 -0.8019060874372311 0.0
outer loop
vertex -0.15149917820159398 5.261036511189509 0.0
vertex -0.11740086894161136 5.290154616597997 0.19419399999999998
vertex -0.15149917820159398 5.261036511189509 0.19419399999999998
endloop
endfacet
facet normal 0.5974501041351586 -0.8019060874372311 0.0
outer loop
vertex -0.15149917820159398 5.261036511189509 0.19419399999999998
vertex -0.1891558376254157 5.236694474339494 0.0
vertex -0.15149917820159398 5.261036511189509 0.0
endloop
endfacet
facet normal 0.48589946499881087 -0.8740147080649554 0.0
outer loop
vertex -0.1891558376254157 5.236694474339494 0.0
vertex -0.15149917820159398 5.261036511189509 0.19419399999999998
vertex -0.1891558376254157 5.236694474339494 0.19419399999999998
endloop
endfacet
facet normal 0.48589946499881087 -0.8740147080649554 0.0
outer loop
vertex -0.1891558376254157 5.236694474339494 0.19419399999999998
vertex -0.2297064633050316 5.21755797743016 0.0
vertex -0.1891558376254157 5.236694474339494 0.0
endloop
endfacet
facet normal 0.365776005266782 -0.9307029139156465 0.0
outer loop
vertex -0.2297064633050316 5.21755797743016 0.0
vertex -0.1891558376254157 5.236694474339494 0.19419399999999998
vertex -0.2297064633050316 5.21755797743016 0.19419399999999998
endloop
endfacet
facet normal 0.365776005266782 -0.9307029139156465 0.0
outer loop
vertex -0.2297064633050316 5.21755797743016 0.19419399999999998
vertex -0.2724356125119863 5.203964649470494 0.0
vertex -0.2297064633050316 5.21755797743016 0.0
endloop
endfacet
facet normal 0.2391990869548634 -0.9709705437344429 0.0
outer loop
vertex -0.2724356125119863 5.203964649470494 0.0
vertex -0.2297064633050316 5.21755797743016 0.19419399999999998
vertex -0.2724356125119863 5.203964649470494 0.19419399999999998
endloop
endfacet
facet normal 0.2391990869548634 -0.9709705437344429 0.0
outer loop
vertex -0.2724356125119863 5.203964649470494 0.19419399999999998
vertex -0.3165894063953162 5.196154320240709 0.0
vertex -0.2724356125119863 5.203964649470494 0.0
endloop
endfacet
facet normal 0.10840193172806353 -0.9941071477449622 0.0
outer loop
vertex -0.3165894063953162 5.196154320240709 0.0
vertex -0.2724356125119863 5.203964649470494 0.19419399999999998
vertex -0.3165894063953162 5.196154320240709 0.19419399999999998
endloop
endfacet
facet normal 0.10840193172806353 -0.9941071477449622 0.0
outer loop
vertex -0.3165894063953162 5.196154320240709 0.19419399999999998
vertex -0.3613888308155818 5.194264788927884 0.0
vertex -0.3165894063953162 5.196154320240709 0.0
endloop
endfacet
facet normal 0.0421401142337088 -0.9991117108573847 0.0
outer loop
vertex -0.3613888308155818 5.194264788927884 0.0
vertex -0.3165894063953162 5.196154320240709 0.19419399999999998
vertex -0.3613888308155818 5.194264788927884 0.19419399999999998
endloop
endfacet
facet normal -0.0 -1.0 -0.0
outer loop
vertex -0.3613888308155818 5.194264788927884 0.19419399999999998
vertex -1.9167678308155818 5.194264788927884 0.0
vertex -0.3613888308155818 5.194264788927884 0.0
endloop
endfacet
facet normal -0.0 -1.0 -0.0
outer loop
vertex -1.9167678308155818 5.194264788927884 0.0
vertex -0.3613888308155818 5.194264788927884 0.19419399999999998
vertex -1.9167678308155818 5.194264788927884 0.19419399999999998
endloop
endfacet
facet normal -0.7007077104382813 0.7134484596187324 0.0
outer loop
vertex -1.9167678308155818 5.194264788927884 0.19419399999999998
vertex -1.4559143714279423 5.646888335900913 0.0
vertex -1.9167678308155818 5.194264788927884 0.0
endloop
endfacet
facet normal -0.7007077104382813 0.7134484596187324 0.0
outer loop
vertex -1.4559143714279423 5.646888335900913 0.0
vertex -1.9167678308155818 5.194264788927884 0.19419399999999998
vertex -1.4559143714279423 5.646888335900913 0.19419399999999998
endloop
endfacet
facet normal 0.34308795476187 0.9393032818516698 0.0
outer loop
vertex -1.4559143714279423 5.646888335900913 0.19419399999999998
vertex -1.2749456989160624 5.580788096577065 0.0
vertex -1.4559143714279423 5.646888335900913 0.0
endloop
endfacet
facet normal 0.21754910902801083 0.9760493763950259 0.0
outer loop
vertex -1.2749456989160624 5.580788096577065 0.0
vertex -1.4559143714279423 5.646888335900913 0.19419399999999998
vertex -1.2749456989160624 5.580788096577065 0.19419399999999998
endloop
endfacet
facet normal 0.21754910902801083 0.9760493763950259 0.0
outer loop
vertex -1.2749456989160624 5.580788096577065 0.19419399999999998
vertex -1.0830353835647424 5.5637783073032665 0.0
vertex -1.2749456989160624 5.580788096577065 0.0
endloop
endfacet
facet normal -0.04248386467513984 0.9990971530548289 0.0
outer loop
vertex -1.0830353835647424 5.5637783073032665 0.0
vertex -1.2749456989160624 5.580788096577065 0.19419399999999998
vertex -1.0830353835647424 5.5637783073032665 0.19419399999999998
endloop
endfacet
facet normal -0.04248386467513984 0.9990971530548289 0.0
outer loop
vertex -1.0830353835647424 5.5637783073032665 0.19419399999999998
vertex -0.8932617962183832 5.597018157108523 0.0
vertex -1.0830353835647424 5.5637783073032665 0.0
endloop
endfacet
facet normal -0.2996216332085861 0.9540581098200567 0.0
outer loop
vertex -0.8932617962183832 5.597018157108523 0.0
vertex -1.0830353835647424 5.5637783073032665 0.19419399999999998
vertex -0.8932617962183832 5.597018157108523 0.19419399999999998
endloop
endfacet
facet normal -0.2996216332085861 0.9540581098200567 0.0
outer loop
vertex -0.8932617962183832 5.597018157108523 0.19419399999999998
vertex -0.7185576932389584 5.678242405160054 0.0
vertex -0.8932617962183832 5.597018157108523 0.0
endloop
endfacet
facet normal -0.5363406825870263 0.8440015830566214 0.0
outer loop
vertex -0.7185576932389584 5.678242405160054 0.0
vertex -0.8932617962183832 5.597018157108523 0.19419399999999998
vertex -0.7185576932389584 5.678242405160054 0.19419399999999998
endloop
endfacet
facet normal -0.5363406825870263 0.8440015830566214 0.0
outer loop
vertex -0.7185576932389584 5.678242405160054 0.19419399999999998
vertex -0.5708288705323346 5.8019157531825645 0.0
vertex -0.7185576932389584 5.678242405160054 0.0
endloop
endfacet
facet normal -0.7365090007920466 0.6764277431864404 0.0
outer loop
vertex -0.5708288705323346 5.8019157531825645 0.0
vertex -0.7185576932389584 5.678242405160054 0.19419399999999998
vertex -0.5708288705323346 5.8019157531825645 0.19419399999999998
endloop
endfacet
facet normal -0.8864854477317614 0.4627564704678031 0.0
outer loop
vertex -0.4601428032325454 5.9596100668881915 0.19419399999999998
vertex -0.5708288705323346 5.8019157531825645 0.0
vertex -0.5708288705323346 5.8019157531825645 0.19419399999999998
endloop
endfacet
facet normal -0.7365090007920466 0.6764277431864404 0.0
outer loop
vertex -0.5708288705323346 5.8019157531825645 0.0
vertex -0.4601428032325454 5.9596100668881915 0.19419399999999998
vertex -0.4601428032325454 5.9596100668881915 0.0
endloop
endfacet
facet normal -0.9760493763950258 0.21754910902801075 0.0
outer loop
vertex -0.39404256390869696 6.1405787394000715 0.19419399999999998
vertex -0.4601428032325454 5.9596100668881915 0.0
vertex -0.4601428032325454 5.9596100668881915 0.19419399999999998
endloop
endfacet
facet normal -0.8864854477317614 0.4627564704678031 0.0
outer loop
vertex -0.4601428032325454 5.9596100668881915 0.0
vertex -0.39404256390869696 6.1405787394000715 0.19419399999999998
vertex -0.39404256390869696 6.1405787394000715 0.0
endloop
endfacet
facet normal -0.999097153054829 -0.04248386467514006 0.0
outer loop
vertex -0.3770327746348989 6.332489054751392 0.19419399999999998
vertex -0.39404256390869696 6.1405787394000715 0.0
vertex -0.39404256390869696 6.1405787394000715 0.19419399999999998
endloop
endfacet
facet normal -0.9760493763950258 0.21754910902801075 0.0
outer loop
vertex -0.39404256390869696 6.1405787394000715 0.0
vertex -0.3770327746348989 6.332489054751392 0.19419399999999998
vertex -0.3770327746348989 6.332489054751392 0.0
endloop
endfacet
facet normal -0.9540581098200569 -0.29962163320858565 0.0
outer loop
vertex -0.4102726244401552 6.5222626420977505 0.19419399999999998
vertex -0.3770327746348989 6.332489054751392 0.0
vertex -0.3770327746348989 6.332489054751392 0.19419399999999998
endloop
endfacet
facet normal -0.999097153054829 -0.04248386467514006 0.0
outer loop
vertex -0.3770327746348989 6.332489054751392 0.0
vertex -0.4102726244401552 6.5222626420977505 0.19419399999999998
vertex -0.4102726244401552 6.5222626420977505 0.0
endloop
endfacet
facet normal -0.8440015830566211 -0.5363406825870265 0.0
outer loop
vertex -0.4914968724916863 6.696966745077176 0.19419399999999998
vertex -0.4102726244401552 6.5222626420977505 0.0
vertex -0.4102726244401552 6.5222626420977505 0.19419399999999998
endloop
endfacet
facet normal -0.9540581098200569 -0.29962163320858565 0.0
outer loop
vertex -0.4102726244401552 6.5222626420977505 0.0
vertex -0.4914968724916863 6.696966745077176 0.19419399999999998
vertex -0.4914968724916863 6.696966745077176 0.0
endloop
endfacet
facet normal -0.7667745254820599 -0.6419165265607064 -0.0
outer loop
vertex -0.6151702205141969 6.844695567783799 0.19419399999999998
vertex -0.4914968724916863 6.696966745077176 0.0
vertex -0.4914968724916863 6.696966745077176 0.19419399999999998
endloop
endfacet
facet normal -0.8440015830566211 -0.5363406825870265 0.0
outer loop
vertex -0.4914968724916863 6.696966745077176 0.0
vertex -0.6151702205141969 6.844695567783799 0.19419399999999998
vertex -0.6151702205141969 6.844695567783799 0.0
endloop
endfacet
facet normal -0.5745070946636975 -0.8184996018209644 0.0
outer loop
vertex -0.6151702205141969 6.844695567783799 0.19419399999999998
vertex -0.765486493641968 6.950202968353311 0.0
vertex -0.6151702205141969 6.844695567783799 0.0
endloop
endfacet
facet normal -0.5745070946636975 -0.8184996018209644 0.0
outer loop
vertex -0.765486493641968 6.950202968353311 0.0
vertex -0.6151702205141969 6.844695567783799 0.19419399999999998
vertex -0.765486493641968 6.950202968353311 0.19419399999999998
endloop
endfacet
facet normal 0.0 0.0 1.0
outer loop
vertex -1.0932329284969937 5.722608661521638 0.18036000000000008
vertex -1.1861890636462795 5.84745017637493 0.18036000000000008
vertex -1.239634050768757 5.741882734918312 0.18036000000000008
endloop
endfacet
facet normal 0.0 0.0 1.0
outer loop
vertex -1.1861890636462795 5.84745017637493 0.18036000000000008
vertex -1.0932329284969937 5.722608661521638 0.18036000000000008
vertex -1.0005130636462796 5.84745017637493 0.18036000000000008
endloop
endfacet
facet normal 0.0 0.0 1.0
outer loop
vertex -1.0005130636462796 5.84745017637493 0.18036000000000008
vertex -1.0932329284969937 5.722608661521638 0.18036000000000008
vertex -0.9468318062252308 5.741882734918313 0.18036000000000008
endloop
endfacet
facet normal 0.0 0.0 1.0
outer loop
vertex -1.0005130636462796 5.84745017637493 0.18036000000000008
vertex -0.9468318062252308 5.741882734918313 0.18036000000000008
vertex -1.0005130636462796 6.26640817637493 0.18036000000000008
endloop
endfacet
facet normal 0.0 0.0 1.0
outer loop
vertex -1.0005130636462796 6.26640817637493 0.18036000000000008
vertex -0.9468318062252308 5.741882734918313 0.18036000000000008
vertex -0.7635210636462796 6.26640817637493 0.18036000000000008
endloop
endfacet
facet normal 0.0 0.0 1.0
outer loop
vertex -0.7635210636462796 6.26640817637493 0.18036000000000008
vertex -0.9468318062252308 5.741882734918313 0.18036000000000008
vertex -0.8104076784969942 5.7983914588582675 0.18036000000000008
endloop
endfacet
facet normal 0.0 0.0 1.0
outer loop
vertex -0.7635210636462796 6.26640817637493 0.18036000000000008
vertex -0.8104076784969942 5.7983914588582675 0.18036000000000008
vertex -0.693257624165433 5.888283857190076 0.18036000000000008
endloop
endfacet
facet normal 0.0 0.0 1.0
outer loop
vertex -0.7635210636462796 6.26640817637493 0.18036000000000008
vertex -0.693257624165433 5.888283857190076 0.18036000000000008
vertex -0.7635210636462796 6.45949617637493 0.18036000000000008
endloop
endfacet
facet normal 0.0 0.0 1.0
outer loop
vertex -0.7635210636462796 6.45949617637493 0.18036000000000008
vertex -1.0005130636462796 6.69995717637493 0.18036000000000008
vertex -1.0005130636462796 6.45949617637493 0.18036000000000008
endloop
endfacet
facet normal 0.0 0.0 1.0
outer loop
vertex -1.0005130636462796 6.69995717637493 0.18036000000000008
vertex -0.7635210636462796 6.45949617637493 0.18036000000000008
vertex -0.9468318062252299 6.834635588124961 0.18036000000000008
endloop
endfacet
facet normal 0.0 0.0 1.0
outer loop
vertex -0.9468318062252299 6.834635588124961 0.18036000000000008
vertex -0.7635210636462796 6.45949617637493 0.18036000000000008
vertex -0.8104076784969935 6.778126864185006 0.18036000000000008
endloop
endfacet
facet normal 0.0 0.0 1.0
outer loop
vertex -0.8104076784969935 6.778126864185006 0.18036000000000008
vertex -0.7635210636462796 6.45949617637493 0.18036000000000008
vertex -0.6932576241654325 6.688234465853197 0.18036000000000008
endloop
endfacet
facet normal 0.0 0.0 1.0
outer loop
vertex -0.6932576241654325 6.688234465853197 0.18036000000000008
vertex -0.7635210636462796 6.45949617637493 0.18036000000000008
vertex -0.693257624165433 5.888283857190076 0.18036000000000008
endloop
endfacet
facet normal 0.0 0.0 1.0
outer loop
vertex -0.6932576241654325 6.688234465853197 0.18036000000000008
vertex -0.693257624165433 5.888283857190076 0.18036000000000008
vertex -0.6033652258336245 6.005433911521637 0.18036000000000008
endloop
endfacet
facet normal 0.0 0.0 1.0
outer loop
vertex -0.6932576241654325 6.688234465853197 0.18036000000000008
vertex -0.6033652258336245 6.005433911521637 0.18036000000000008
vertex -0.6033652258336242 6.571084411521636 0.18036000000000008
endloop
endfacet
facet normal 0.0 0.0 1.0
outer loop
vertex -0.6033652258336242 6.571084411521636 0.18036000000000008
vertex -0.6033652258336245 6.005433911521637 0.18036000000000008
vertex -0.5468565018936695 6.141858039249874 0.18036000000000008
endloop
endfacet
facet normal 0.0 0.0 1.0
outer loop
vertex -0.6033652258336242 6.571084411521636 0.18036000000000008
vertex -0.5468565018936695 6.141858039249874 0.18036000000000008
vertex -0.5468565018936694 6.4346602837934 0.18036000000000008
endloop
endfacet
facet normal 0.0 0.0 1.0
outer loop
vertex -0.5468565018936694 6.4346602837934 0.18036000000000008
vertex -0.5468565018936695 6.141858039249874 0.18036000000000008
vertex -0.5275824284969941 6.288259161521637 0.18036000000000008
endloop
endfacet
facet normal 0.0 0.0 1.0
outer loop
vertex -1.493208232828554 6.688234465853198 0.18036000000000008
vertex -1.4230440636462796 6.45949617637493 0.18036000000000008
vertex -1.376058178496993 6.7781268641850065 0.18036000000000008
endloop
endfacet
facet normal 0.0 0.0 1.0
outer loop
vertex -1.4230440636462796 6.45949617637493 0.18036000000000008
vertex -1.493208232828554 6.688234465853198 0.18036000000000008
vertex -1.4303310636462796 6.26640817637493 0.18036000000000008
endloop
endfacet
facet normal 0.0 0.0 1.0
outer loop
vertex -1.376058178496993 6.7781268641850065 0.18036000000000008
vertex -1.4230440636462796 6.45949617637493 0.18036000000000008
vertex -1.1898540636462795 6.45949617637493 0.18036000000000008
endloop
endfacet
facet normal 0.0 0.0 1.0
outer loop
vertex -1.376058178496993 6.7781268641850065 0.18036000000000008
vertex -1.1898540636462795 6.45949617637493 0.18036000000000008
vertex -1.2396340507687564 6.834635588124962 0.18036000000000008
endloop
endfacet
facet normal 0.0 0.0 1.0
outer loop
vertex -1.2396340507687564 6.834635588124962 0.18036000000000008
vertex -1.1898540636462795 6.45949617637493 0.18036000000000008
vertex -1.1898540636462795 6.69995717637493 0.18036000000000008
endloop
endfacet
facet normal 0.0 0.0 1.0
outer loop
vertex -1.2396340507687564 6.834635588124962 0.18036000000000008
vertex -1.1898540636462795 6.69995717637493 0.18036000000000008
vertex -1.093232928496993 6.853909661521636 0.18036000000000008
endloop
endfacet
facet normal 0.0 0.0 1.0
outer loop
vertex -1.093232928496993 6.853909661521636 0.18036000000000008
vertex -1.1898540636462795 6.69995717637493 0.18036000000000008
vertex -1.0005130636462796 6.69995717637493 0.18036000000000008
endloop
endfacet
facet normal 0.0 0.0 1.0
outer loop
vertex -1.093232928496993 6.853909661521636 0.18036000000000008
vertex -1.0005130636462796 6.69995717637493 0.18036000000000008
vertex -0.9468318062252299 6.834635588124961 0.18036000000000008
endloop
endfacet
facet normal 0.0 0.0 1.0
outer loop
vertex -1.6396093551003181 6.1418580392498745 0.18036000000000008
vertex -1.6396093551003177 6.434660283793401 0.18036000000000008
vertex -1.6588834284969933 6.288259161521638 0.18036000000000008
endloop
endfacet
facet normal 0.0 0.0 1.0
outer loop
vertex -1.6396093551003177 6.434660283793401 0.18036000000000008
vertex -1.6396093551003181 6.1418580392498745 0.18036000000000008
vertex -1.5831006311603633 6.005433911521638 0.18036000000000008
endloop
endfacet
facet normal 0.0 0.0 1.0
outer loop
vertex -1.6396093551003177 6.434660283793401 0.18036000000000008
vertex -1.5831006311603633 6.005433911521638 0.18036000000000008
vertex -1.5831006311603626 6.571084411521637 0.18036000000000008
endloop
endfacet
facet normal 0.0 0.0 1.0
outer loop
vertex -1.5831006311603626 6.571084411521637 0.18036000000000008
vertex -1.5831006311603633 6.005433911521638 0.18036000000000008
vertex -1.4932082328285547 5.888283857190077 0.18036000000000008
endloop
endfacet
facet normal 0.0 0.0 1.0
outer loop
vertex -1.5831006311603626 6.571084411521637 0.18036000000000008
vertex -1.4932082328285547 5.888283857190077 0.18036000000000008
vertex -1.493208232828554 6.688234465853198 0.18036000000000008
endloop
endfacet
facet normal 0.0 0.0 1.0
outer loop
vertex -1.493208232828554 6.688234465853198 0.18036000000000008
vertex -1.4932082328285547 5.888283857190077 0.18036000000000008
vertex -1.3760581784969936 5.7983914588582675 0.18036000000000008
endloop
endfacet
facet normal 0.0 0.0 1.0
outer loop
vertex -1.493208232828554 6.688234465853198 0.18036000000000008
vertex -1.3760581784969936 5.7983914588582675 0.18036000000000008
vertex -1.4303310636462796 6.26640817637493 0.18036000000000008
endloop
endfacet
facet normal 0.0 0.0 1.0
outer loop
vertex -1.4303310636462796 6.26640817637493 0.18036000000000008
vertex -1.3760581784969936 5.7983914588582675 0.18036000000000008
vertex -1.1861890636462795 6.26640817637493 0.18036000000000008
endloop
endfacet
facet normal 0.0 0.0 1.0
outer loop
vertex -1.1861890636462795 6.26640817637493 0.18036000000000008
vertex -1.3760581784969936 5.7983914588582675 0.18036000000000008
vertex -1.239634050768757 5.741882734918312 0.18036000000000008
endloop
endfacet
facet normal 0.0 0.0 1.0
outer loop
vertex -1.1861890636462795 6.26640817637493 0.18036000000000008
vertex -1.239634050768757 5.741882734918312 0.18036000000000008
vertex -1.1861890636462795 5.84745017637493 0.18036000000000008
endloop
endfacet
facet normal -0.2588190451025191 0.9659258262890689 0.0
outer loop
vertex -1.2396340507687564 6.834635588124962 0.18036000000000008
vertex -1.093232928496993 6.853909661521636 0.0
vertex -1.2396340507687564 6.834635588124962 0.0
endloop
endfacet
facet normal -0.13052619222004744 0.9914448613738109 0.0
outer loop
vertex -1.093232928496993 6.853909661521636 0.0
vertex -1.2396340507687564 6.834635588124962 0.18036000000000008
vertex -1.093232928496993 6.853909661521636 0.18036000000000008
endloop
endfacet
facet normal 0.13052619222005357 0.9914448613738103 0.0
outer loop
vertex -1.093232928496993 6.853909661521636 0.18036000000000008
vertex -0.9468318062252299 6.834635588124961 0.0
vertex -1.093232928496993 6.853909661521636 0.0
endloop
endfacet
facet normal 0.25881904510252224 0.9659258262890679 0.0
outer loop
vertex -0.9468318062252299 6.834635588124961 0.0
vertex -1.093232928496993 6.853909661521636 0.18036000000000008
vertex -0.9468318062252299 6.834635588124961 0.18036000000000008
endloop
endfacet
facet normal 0.25881904510252224 0.9659258262890679 0.0
outer loop
vertex -0.9468318062252299 6.834635588124961 0.18036000000000008
vertex -0.8104076784969935 6.778126864185006 0.0
vertex -0.9468318062252299 6.834635588124961 0.0
endloop
endfacet
facet normal 0.5000000000000004 0.8660254037844384 0.0
outer loop
vertex -0.8104076784969935 6.778126864185006 0.0
vertex -0.9468318062252299 6.834635588124961 0.18036000000000008
vertex -0.8104076784969935 6.778126864185006 0.18036000000000008
endloop
endfacet
facet normal 0.5000000000000004 0.8660254037844384 0.0
outer loop
vertex -0.8104076784969935 6.778126864185006 0.18036000000000008
vertex -0.6932576241654325 6.688234465853197 0.0
vertex -0.8104076784969935 6.778126864185006 0.0
endloop
endfacet
facet normal 0.7071067811865477 0.7071067811865475 0.0
outer loop
vertex -0.6932576241654325 6.688234465853197 0.0
vertex -0.8104076784969935 6.778126864185006 0.18036000000000008
vertex -0.6932576241654325 6.688234465853197 0.18036000000000008
endloop
endfacet
facet normal 0.7071067811865477 0.7071067811865475 0.0
outer loop
vertex -0.6932576241654325 6.688234465853197 0.0
vertex -0.6033652258336242 6.571084411521636 0.18036000000000008
vertex -0.6033652258336242 6.571084411521636 0.0
endloop
endfacet
facet normal 0.8660254037844388 0.5 0.0
outer loop
vertex -0.6033652258336242 6.571084411521636 0.18036000000000008
vertex -0.6932576241654325 6.688234465853197 0.0
vertex -0.6932576241654325 6.688234465853197 0.18036000000000008
endloop
endfacet
facet normal 0.8660254037844388 0.5 0.0
outer loop
vertex -0.6033652258336242 6.571084411521636 0.0
vertex -0.5468565018936694 6.4346602837934 0.18036000000000008
vertex -0.5468565018936694 6.4346602837934 0.0
endloop
endfacet
facet normal 0.9659258262890682 0.2588190451025207 0.0
outer loop
vertex -0.5468565018936694 6.4346602837934 0.18036000000000008
vertex -0.6033652258336242 6.571084411521636 0.0
vertex -0.6033652258336242 6.571084411521636 0.18036000000000008
endloop
endfacet
facet normal 0.9659258262890682 0.2588190451025207 0.0
outer loop
vertex -0.5468565018936694 6.4346602837934 0.0
vertex -0.5275824284969941 6.288259161521637 0.18036000000000008
vertex -0.5275824284969941 6.288259161521637 0.0
endloop
endfacet
facet normal 1.0 -3.8317772551281694e-16 0.0
outer loop
vertex -0.5275824284969941 6.288259161521637 0.18036000000000008
vertex -0.5468565018936694 6.4346602837934 0.0
vertex -0.5468565018936694 6.4346602837934 0.18036000000000008
endloop
endfacet
facet normal 1.0 -3.8317772551281694e-16 0.0
outer loop
vertex -0.5275824284969941 6.288259161521637 0.0
vertex -0.5468565018936695 6.141858039249874 0.18036000000000008
vertex -0.5468565018936695 6.141858039249874 0.0
endloop
endfacet
facet normal 0.9659258262890683 -0.25881904510252063 0.0
outer loop
vertex -0.5468565018936695 6.141858039249874 0.18036000000000008
vertex -0.5275824284969941 6.288259161521637 0.0
vertex -0.5275824284969941 6.288259161521637 0.18036000000000008
endloop
endfacet
facet normal 0.9659258262890683 -0.25881904510252063 0.0
outer loop
vertex -0.5468565018936695 6.141858039249874 0.0
vertex -0.6033652258336245 6.005433911521637 0.18036000000000008
vertex -0.6033652258336245 6.005433911521637 0.0
endloop
endfacet
facet normal 0.8660254037844386 -0.5 0.0
outer loop
vertex -0.6033652258336245 6.005433911521637 0.18036000000000008
vertex -0.5468565018936695 6.141858039249874 0.0
vertex -0.5468565018936695 6.141858039249874 0.18036000000000008
endloop
endfacet
facet normal 0.8660254037844386 -0.5 0.0
outer loop
vertex -0.6033652258336245 6.005433911521637 0.0
vertex -0.693257624165433 5.888283857190076 0.18036000000000008
vertex -0.693257624165433 5.888283857190076 0.0
endloop
endfacet
facet normal 0.707106781186547 -0.707106781186548 0.0
outer loop
vertex -0.693257624165433 5.888283857190076 0.18036000000000008
vertex -0.6033652258336245 6.005433911521637 0.0
vertex -0.6033652258336245 6.005433911521637 0.18036000000000008
endloop
endfacet
facet normal 0.707106781186547 -0.707106781186548 0.0
outer loop
vertex -0.693257624165433 5.888283857190076 0.18036000000000008
vertex -0.8104076784969942 5.7983914588582675 0.0
vertex -0.693257624165433 5.888283857190076 0.0
endloop
endfacet
facet normal 0.49999999999999756 -0.8660254037844399 0.0
outer loop
vertex -0.8104076784969942 5.7983914588582675 0.0
vertex -0.693257624165433 5.888283857190076 0.18036000000000008
vertex -0.8104076784969942 5.7983914588582675 0.18036000000000008
endloop
endfacet
facet normal 0.49999999999999756 -0.8660254037844399 0.0
outer loop
vertex -0.8104076784969942 5.7983914588582675 0.18036000000000008
vertex -0.9468318062252308 5.741882734918313 0.0
vertex -0.8104076784969942 5.7983914588582675 0.0
endloop
endfacet
facet normal 0.25881904510251946 -0.9659258262890685 0.0
outer loop
vertex -0.9468318062252308 5.741882734918313 0.0
vertex -0.8104076784969942 5.7983914588582675 0.18036000000000008
vertex -0.9468318062252308 5.741882734918313 0.18036000000000008
endloop
endfacet
facet normal 0.25881904510251946 -0.9659258262890685 0.0
outer loop
vertex -0.9468318062252308 5.741882734918313 0.18036000000000008
vertex -1.0932329284969937 5.722608661521638 0.0
vertex -0.9468318062252308 5.741882734918313 0.0
endloop
endfacet
facet normal 0.13052619222005377 -0.9914448613738102 0.0
outer loop
vertex -1.0932329284969937 5.722608661521638 0.0
vertex -0.9468318062252308 5.741882734918313 0.18036000000000008
vertex -1.0932329284969937 5.722608661521638 0.18036000000000008
endloop
endfacet
facet normal -0.13052619222004744 -0.9914448613738109 -0.0
outer loop
vertex -1.0932329284969937 5.722608661521638 0.18036000000000008
vertex -1.239634050768757 5.741882734918312 0.0
vertex -1.0932329284969937 5.722608661521638 0.0
endloop
endfacet
facet normal -0.2588190451025191 -0.9659258262890689 0.0
outer loop
vertex -1.239634050768757 5.741882734918312 0.0
vertex -1.0932329284969937 5.722608661521638 0.18036000000000008
vertex -1.239634050768757 5.741882734918312 0.18036000000000008
endloop
endfacet
facet normal -0.2588190451025191 -0.9659258262890689 0.0
outer loop
vertex -1.239634050768757 5.741882734918312 0.18036000000000008
vertex -1.3760581784969936 5.7983914588582675 0.0
vertex -1.239634050768757 5.741882734918312 0.0
endloop
endfacet
facet normal -0.5000000000000022 -0.8660254037844373 0.0
outer loop
vertex -1.3760581784969936 5.7983914588582675 0.0
vertex -1.239634050768757 5.741882734918312 0.18036000000000008
vertex -1.3760581784969936 5.7983914588582675 0.18036000000000008
endloop
endfacet
facet normal -0.5000000000000022 -0.8660254037844373 0.0
outer loop
vertex -1.3760581784969936 5.7983914588582675 0.18036000000000008
vertex -1.4932082328285547 5.888283857190077 0.0
vertex -1.3760581784969936 5.7983914588582675 0.0
endloop
endfacet
facet normal -0.7071067811865489 -0.7071067811865462 0.0
outer loop
vertex -1.4932082328285547 5.888283857190077 0.0
vertex -1.3760581784969936 5.7983914588582675 0.18036000000000008
vertex -1.4932082328285547 5.888283857190077 0.18036000000000008
endloop
endfacet
facet normal -0.8660254037844387 -0.4999999999999998 0.0
outer loop
vertex -1.5831006311603633 6.005433911521638 0.18036000000000008
vertex -1.4932082328285547 5.888283857190077 0.0
vertex -1.4932082328285547 5.888283857190077 0.18036000000000008
endloop
endfacet
facet normal -0.7071067811865489 -0.7071067811865462 0.0
outer loop
vertex -1.4932082328285547 5.888283857190077 0.0
vertex -1.5831006311603633 6.005433911521638 0.18036000000000008
vertex -1.5831006311603633 6.005433911521638 0.0
endloop
endfacet
facet normal -0.9659258262890685 -0.2588190451025195 0.0
outer loop
vertex -1.6396093551003181 6.1418580392498745 0.18036000000000008
vertex -1.5831006311603633 6.005433911521638 0.0
vertex -1.5831006311603633 6.005433911521638 0.18036000000000008
endloop
endfacet
facet normal -0.8660254037844387 -0.4999999999999998 0.0
outer loop
vertex -1.5831006311603633 6.005433911521638 0.0
vertex -1.6396093551003181 6.1418580392498745 0.18036000000000008
vertex -1.6396093551003181 6.1418580392498745 0.0
endloop
endfacet
facet normal -1.0 1.4792442426773864e-15 0.0
outer loop
vertex -1.6588834284969933 6.288259161521638 0.18036000000000008
vertex -1.6396093551003181 6.1418580392498745 0.0
vertex -1.6396093551003181 6.1418580392498745 0.18036000000000008
endloop
endfacet
facet normal -0.9659258262890685 -0.2588190451025195 0.0
outer loop
vertex -1.6396093551003181 6.1418580392498745 0.0
vertex -1.6588834284969933 6.288259161521638 0.18036000000000008
vertex -1.6588834284969933 6.288259161521638 0.0
endloop
endfacet
facet normal -0.9659258262890679 0.2588190451025228 0.0
outer loop
vertex -1.6396093551003177 6.434660283793401 0.18036000000000008
vertex -1.6588834284969933 6.288259161521638 0.0
vertex -1.6588834284969933 6.288259161521638 0.18036000000000008
endloop
endfacet
facet normal -1.0 1.4792442426773864e-15 0.0
outer loop
vertex -1.6588834284969933 6.288259161521638 0.0
vertex -1.6396093551003177 6.434660283793401 0.18036000000000008
vertex -1.6396093551003177 6.434660283793401 0.0
endloop
endfacet
facet normal -0.8660254037844378 0.5000000000000013 0.0
outer loop
vertex -1.5831006311603626 6.571084411521637 0.18036000000000008
vertex -1.6396093551003177 6.434660283793401 0.0
vertex -1.6396093551003177 6.434660283793401 0.18036000000000008
endloop
endfacet
facet normal -0.9659258262890679 0.2588190451025228 0.0
outer loop
vertex -1.6396093551003177 6.434660283793401 0.0
vertex -1.5831006311603626 6.571084411521637 0.18036000000000008
vertex -1.5831006311603626 6.571084411521637 0.0
endloop
endfacet
facet normal -0.7071067811865471 0.707106781186548 0.0
outer loop
vertex -1.493208232828554 6.688234465853198 0.18036000000000008
vertex -1.5831006311603626 6.571084411521637 0.0
vertex -1.5831006311603626 6.571084411521637 0.18036000000000008
endloop
endfacet
facet normal -0.8660254037844378 0.5000000000000013 0.0
outer loop
vertex -1.5831006311603626 6.571084411521637 0.0
vertex -1.493208232828554 6.688234465853198 0.18036000000000008
vertex -1.493208232828554 6.688234465853198 0.0
endloop
endfacet
facet normal -0.7071067811865471 0.707106781186548 0.0
outer loop
vertex -1.493208232828554 6.688234465853198 0.18036000000000008
vertex -1.376058178496993 6.7781268641850065 0.0
vertex -1.493208232828554 6.688234465853198 0.0
endloop
endfacet
facet normal -0.5000000000000001 0.8660254037844386 0.0
outer loop
vertex -1.376058178496993 6.7781268641850065 0.0
vertex -1.493208232828554 6.688234465853198 0.18036000000000008
vertex -1.376058178496993 6.7781268641850065 0.18036000000000008
endloop
endfacet
facet normal -0.5000000000000001 0.8660254037844386 0.0
outer loop
vertex -1.376058178496993 6.7781268641850065 0.18036000000000008
vertex -1.2396340507687564 6.834635588124962 0.0
vertex -1.376058178496993 6.7781268641850065 0.0
endloop
endfacet
facet normal -0.2588190451025191 0.9659258262890689 0.0
outer loop
vertex -1.2396340507687564 6.834635588124962 0.0
vertex -1.376058178496993 6.7781268641850065 0.18036000000000008
vertex -1.2396340507687564 6.834635588124962 0.18036000000000008
endloop
endfacet
facet normal 0.9992886335662399 -0.037712422692229554 0.0
outer loop
vertex -1.4230440636462796 6.45949617637493 0.0
vertex -1.4303310636462796 6.26640817637493 0.18036000000000008
vertex -1.4303310636462796 6.26640817637493 0.0
endloop
endfacet
facet normal 0.9992886335662399 -0.037712422692229554 0.0
outer loop
vertex -1.4303310636462796 6.26640817637493 0.18036000000000008
vertex -1.4230440636462796 6.45949617637493 0.0
vertex -1.4230440636462796 6.45949617637493 0.18036000000000008
endloop
endfacet
facet normal -0.0 1.0 0.0
outer loop
vertex -1.4303310636462796 6.26640817637493 0.18036000000000008
vertex -1.1861890636462795 6.26640817637493 0.0
vertex -1.4303310636462796 6.26640817637493 0.0
endloop
endfacet
facet normal -0.0 1.0 0.0
outer loop
vertex -1.1861890636462795 6.26640817637493 0.0
vertex -1.4303310636462796 6.26640817637493 0.18036000000000008
vertex -1.1861890636462795 6.26640817637493 0.18036000000000008
endloop
endfacet
facet normal 1.0 0.0 0.0
outer loop
vertex -1.1861890636462795 6.26640817637493 0.0
vertex -1.1861890636462795 5.84745017637493 0.18036000000000008
vertex -1.1861890636462795 5.84745017637493 0.0
endloop
endfacet
facet normal 1.0 0.0 0.0
outer loop
vertex -1.1861890636462795 5.84745017637493 0.18036000000000008
vertex -1.1861890636462795 6.26640817637493 0.0
vertex -1.1861890636462795 6.26640817637493 0.18036000000000008
endloop
endfacet
facet normal -0.0 1.0 0.0
outer loop
vertex -1.1861890636462795 5.84745017637493 0.18036000000000008
vertex -1.0005130636462796 5.84745017637493 0.0
vertex -1.1861890636462795 5.84745017637493 0.0
endloop
endfacet
facet normal -0.0 1.0 0.0
outer loop
vertex -1.0005130636462796 5.84745017637493 0.0
vertex -1.1861890636462795 5.84745017637493 0.18036000000000008
vertex -1.0005130636462796 5.84745017637493 0.18036000000000008
endloop
endfacet
facet normal -1.0 0.0 0.0
outer loop
vertex -1.0005130636462796 6.26640817637493 0.18036000000000008
vertex -1.0005130636462796 5.84745017637493 0.0
vertex -1.0005130636462796 5.84745017637493 0.18036000000000008
endloop
endfacet
facet normal -1.0 0.0 0.0
outer loop
vertex -1.0005130636462796 5.84745017637493 0.0
vertex -1.0005130636462796 6.26640817637493 0.18036000000000008
vertex -1.0005130636462796 6.26640817637493 0.0
endloop
endfacet
facet normal -0.0 1.0 0.0
outer loop
vertex -1.0005130636462796 6.26640817637493 0.18036000000000008
vertex -0.7635210636462796 6.26640817637493 0.0
vertex -1.0005130636462796 6.26640817637493 0.0
endloop
endfacet
facet normal -0.0 1.0 0.0
outer loop
vertex -0.7635210636462796 6.26640817637493 0.0
vertex -1.0005130636462796 6.26640817637493 0.18036000000000008
vertex -0.7635210636462796 6.26640817637493 0.18036000000000008
endloop
endfacet
facet normal -1.0 0.0 0.0
outer loop
vertex -0.7635210636462796 6.45949617637493 0.18036000000000008
vertex -0.7635210636462796 6.26640817637493 0.0
vertex -0.7635210636462796 6.26640817637493 0.18036000000000008
endloop
endfacet
facet normal -1.0 0.0 0.0
outer loop
vertex -0.7635210636462796 6.26640817637493 0.0
vertex -0.7635210636462796 6.45949617637493 0.18036000000000008
vertex -0.7635210636462796 6.45949617637493 0.0
endloop
endfacet
facet normal -0.0 -1.0 -0.0
outer loop
vertex -0.7635210636462796 6.45949617637493 0.18036000000000008
vertex -1.0005130636462796 6.45949617637493 0.0
vertex -0.7635210636462796 6.45949617637493 0.0
endloop
endfacet
facet normal -0.0 -1.0 -0.0
outer loop
vertex -1.0005130636462796 6.45949617637493 0.0
vertex -0.7635210636462796 6.45949617637493 0.18036000000000008
vertex -1.0005130636462796 6.45949617637493 0.18036000000000008
endloop
endfacet
facet normal -1.0 0.0 0.0
outer loop
vertex -1.0005130636462796 6.69995717637493 0.18036000000000008
vertex -1.0005130636462796 6.45949617637493 0.0
vertex -1.0005130636462796 6.45949617637493 0.18036000000000008
endloop
endfacet
facet normal -1.0 0.0 0.0
outer loop
vertex -1.0005130636462796 6.45949617637493 0.0
vertex -1.0005130636462796 6.69995717637493 0.18036000000000008
vertex -1.0005130636462796 6.69995717637493 0.0
endloop
endfacet
facet normal -0.0 -1.0 -0.0
outer loop
vertex -1.0005130636462796 6.69995717637493 0.18036000000000008
vertex -1.1898540636462795 6.69995717637493 0.0
vertex -1.0005130636462796 6.69995717637493 0.0
endloop
endfacet
facet normal -0.0 -1.0 -0.0
outer loop
vertex -1.1898540636462795 6.69995717637493 0.0
vertex -1.0005130636462796 6.69995717637493 0.18036000000000008
vertex -1.1898540636462795 6.69995717637493 0.18036000000000008
endloop
endfacet
facet normal 1.0 0.0 0.0
outer loop
vertex -1.1898540636462795 6.69995717637493 0.0
vertex -1.1898540636462795 6.45949617637493 0.18036000000000008
vertex -1.1898540636462795 6.45949617637493 0.0
endloop
endfacet
facet normal 1.0 0.0 0.0
outer loop
vertex -1.1898540636462795 6.45949617637493 0.18036000000000008
vertex -1.1898540636462795 6.69995717637493 0.0
vertex -1.1898540636462795 6.69995717637493 0.18036000000000008
endloop
endfacet
facet normal -0.0 -1.0 -0.0
outer loop
vertex -1.1898540636462795 6.45949617637493 0.18036000000000008
vertex -1.4230440636462796 6.45949617637493 0.0
vertex -1.1898540636462795 6.45949617637493 0.0
endloop
endfacet
facet normal -0.0 -1.0 -0.0
outer loop
vertex -1.4230440636462796 6.45949617637493 0.0
vertex -1.1898540636462795 6.45949617637493 0.18036000000000008
vertex -1.4230440636462796 6.45949617637493 0.18036000000000008
endloop
endfacet
endsolid logo
